<?xml version="1.0" encoding="UTF-8"?>
<!-- Created with Inkscape (http://www.inkscape.org/) -->
<svg width="220.22mm" height="56.011mm" version="1.1" viewBox="0 0 220.22 56.011" xmlns="http://www.w3.org/2000/svg">
 <defs>
  <style type="text/css"/>
 </defs>
 <g transform="translate(-51.596 -21.885)">
  <g class="relationship" transform="matrix(.26458 0 0 .26458 140.44 12.19)" stroke="#000" stroke-width="2">
   <g transform="rotate(180 35.975 71.614)">
    <path d="m12 0h41.836"/>
   </g>
   <g transform="rotate(223.35 31.52 70.399)">
    <path d="m12 0h62.795"/>
   </g>
   <g transform="rotate(135 -26.606 72.88)">
    <path d="m12 0h65.256"/>
   </g>
   <g transform="rotate(-.77431 10634 -5252.3)">
    <path d="m12 0h35.587"/>
   </g>
   <g transform="rotate(-42.6 248.41 -97.469)">
    <path d="m12 0h62.835"/>
   </g>
   <g transform="rotate(45 -106.15 229.98)">
    <path d="m12 0h66.395"/>
   </g>
   <g transform="rotate(180 174.88 71.211)">
    <path d="m12 0h66.395"/>
   </g>
   <g transform="rotate(222.6 157.45 20.649)">
    <path d="m12 0h62.835"/>
   </g>
   <g transform="rotate(135 100.19 124.93)">
    <path d="m12 0h66.395"/>
   </g>
  </g>
  <g class="node" transform="matrix(.26458 0 0 .26458 140.44 12.19)">
   <g fill="#fe9200" stroke="#000" stroke-width="2">
    <circle cx="-57" cy="83.646" r="11"/>
   </g>
   <g transform="translate(-57 83.646)">
    <g transform="translate(-9.8995 -41.899)">
     <g transform="translate(-48.083)">
      <g fill="#fff" stroke="#000" stroke-width="2">
       <rect width="46.083" height="14" rx="7" ry="7"/>
       <text x="7" y="10" fill="#000000" font-family="sans-serif" font-size="10px" stroke="none" xml:space="preserve">Article</text>
      </g>
     </g>
     <g transform="translate(0,20)">
      <g transform="translate(-135.07)" fill="#fff">
       <rect width="135.07" height="12" rx="0" ry="0"/>
       <g fill="#000" font-family="sans-serif" font-size="10px" text-anchor="end">
        <text x="26.099998" y="9" xml:space="preserve">title:</text>
        <text x="29.283333" y="9" text-anchor="start" xml:space="preserve">Conflicted medical...</text>
       </g>
      </g>
     </g>
    </g>
   </g>
   <g fill="#a4dd00" stroke="#000" stroke-width="2">
    <circle cx="71.949" cy="143.23" r="11"/>
   </g>
   <g transform="translate(71.949 143.23)">
    <g transform="translate(0,14)">
     <g transform="translate(-24.825)">
      <g fill="#fff" stroke="#000" stroke-width="2">
       <rect width="47.65" height="14" rx="7" ry="7"/>
       <text x="7" y="10" fill="#000000" font-family="sans-serif" font-size="10px" stroke="none" xml:space="preserve">Author</text>
      </g>
     </g>
     <g transform="translate(0,20)">
      <g transform="translate(-64.25)" fill="#fff">
       <rect width="128.5" height="12" rx="0" ry="0"/>
       <g fill="#000" font-family="sans-serif" font-size="10px" text-anchor="end">
        <text x="34.900002" y="9" xml:space="preserve">name:</text>
        <text x="38.083332" y="9" text-anchor="start" xml:space="preserve">Leemon McHenry</text>
       </g>
      </g>
     </g>
    </g>
   </g>
  </g>
  <g transform="matrix(.26458 0 0 .26458 140.44 12.19)" fill="#7b64ff" stroke="#000" stroke-width="2">
   <circle cx="-57" cy="206.34" r="11"/>
  </g>
  <g transform="matrix(.26458 0 0 .26458 122.74 69.403)">
   <g transform="translate(-63.35)">
    <g fill="#fff" stroke="#000" stroke-width="2">
     <rect width="61.35" height="14" rx="7" ry="7"/>
     <text x="7" y="10" fill="#000000" font-family="sans-serif" font-size="10px" stroke="none" xml:space="preserve">Affiliation</text>
    </g>
   </g>
  </g>
  <rect x="51.596" y="74.695" width="72.589" height="3.175" rx="0" ry="0" fill="#fff" stroke-width=".24935"/>
  <g transform="matrix(.26458 0 0 .26458 51.596 74.695)" font-family="sans-serif" font-size="10px" text-anchor="end">
   <text x="34.900002" y="9" xml:space="preserve">name:</text>
   <text x="38.083332" y="9" text-anchor="start" xml:space="preserve">Discipline of Psychiatry, University of Adelaide</text>
  </g>
  <g transform="matrix(.26458 0 0 .26458 140.44 12.19)" fill="#7b64ff" stroke="#000" stroke-width="2">
   <circle cx="195.45" cy="206.34" r="11"/>
  </g>
  <g transform="matrix(.26458 0 0 .26458 192.16 70.488)">
   <g transform="translate(-31.675)">
    <g fill="#fff" stroke="#000" stroke-width="2">
     <rect width="61.35" height="14" rx="7" ry="7"/>
     <text x="7" y="10" fill="#000000" font-family="sans-serif" font-size="10px" stroke="none" xml:space="preserve">Affiliation</text>
    </g>
   </g>
  </g>
  <g transform="matrix(.26458 0 0 .26458 223.91 74.721)">
   <g transform="translate(-154.45)" fill="#fff">
    <rect width="308.9" height="12" rx="0" ry="0"/>
    <g fill="#000" font-family="sans-serif" font-size="10px" text-anchor="end">
     <text x="34.900002" y="9" xml:space="preserve">name:</text>
     <text x="38.083332" y="9" text-anchor="start" xml:space="preserve">Department of Philosophy, California State University</text>
    </g>
   </g>
  </g>
  <g class="node" transform="matrix(.26458 0 0 .26458 140.44 12.19)">
   <g fill="#e27300" stroke="#000" stroke-width="2">
    <circle cx="195.45" cy="83.646" r="11"/>
   </g>
   <g transform="translate(195.45 83.646)">
    <g transform="translate(0,-46)">
     <g transform="translate(-24.042)">
      <g fill="#fff" stroke="#000" stroke-width="2">
       <rect width="46.083" height="14" rx="7" ry="7"/>
       <text x="7" y="10" fill="#000000" font-family="sans-serif" font-size="10px" stroke="none" xml:space="preserve">Article</text>
      </g>
     </g>
     <g transform="translate(0,20)">
      <g transform="translate(-53.133)" fill="#fff">
       <rect width="106.27" height="12" rx="0" ry="0"/>
       <g fill="#000" font-family="sans-serif" font-size="10px" text-anchor="end">
        <text x="26.099998" y="9" xml:space="preserve">title:</text>
        <text x="29.283333" y="9" text-anchor="start" xml:space="preserve">Blood money...</text>
       </g>
      </g>
     </g>
    </g>
   </g>
  </g>
  <g transform="matrix(.26458 0 0 .26458 140.44 12.19)" fill="#fff" stroke="#000" stroke-width="2">
   <circle cx="6.1137" cy="143.23" r="11"/>
  </g>
  <rect x="133.4" y="42.167" width="19.614" height="3.6652" rx="2.1577" ry="1.8326" fill="#fff" stroke="#000" stroke-width=".56815"/>
  <text x="135.23004" y="44.793423" fill="#000000" font-family="sans-serif" font-size="2.6458px" stroke-width=".52917" xml:space="preserve">Contribution</text>
  <g class="node" transform="matrix(.26458 0 0 .26458 140.44 12.19)">
   <g fill="#fff" stroke="#000" stroke-width="2">
    <circle cx="131.53" cy="142.42" r="11"/>
   </g>
   <g transform="translate(131.53 142.42)">
    <g transform="translate(0,-30)">
     <g transform="translate(-39.042)">
      <g fill="#fff" stroke="#000" stroke-width="2">
       <rect width="76.083" height="14" rx="7" ry="7"/>
       <text x="7" y="10" fill="#000000" font-family="sans-serif" font-size="10px" stroke="none" xml:space="preserve">Contribution</text>
      </g>
     </g>
    </g>
   </g>
   <g fill="#fff" stroke="#000" stroke-width="2">
    <circle cx="259.37" cy="142.42" r="11"/>
   </g>
   <g transform="translate(259.37 142.42)">
    <g transform="translate(0,-30)">
     <g transform="translate(-39.042)">
      <g fill="#fff" stroke="#000" stroke-width="2">
       <rect width="76.083" height="14" rx="7" ry="7"/>
       <text x="7" y="10" fill="#000000" font-family="sans-serif" font-size="10px" stroke="none" xml:space="preserve">Contribution</text>
      </g>
     </g>
    </g>
   </g>
   <g fill="#a4dd00" stroke="#000" stroke-width="2">
    <circle cx="349.76" cy="142.42" r="11"/>
   </g>
   <g transform="translate(349.76 142.42)">
    <g transform="translate(14,-16)">
     <g fill="#fff" stroke="#000" stroke-width="2">
      <rect width="47.65" height="14" rx="7" ry="7"/>
      <text x="7" y="10" fill="#000000" font-family="sans-serif" font-size="10px" stroke="none" xml:space="preserve">Author</text>
     </g>
     <g transform="translate(0,20)">
      <g fill="#fff">
       <rect width="132.75" height="12" rx="0" ry="0"/>
       <g fill="#000" font-family="sans-serif" font-size="10px" text-anchor="end">
        <text x="34.900002" y="9" xml:space="preserve">name:</text>
        <text x="38.083332" y="9" text-anchor="start" xml:space="preserve">Mellad Khoshnood</text>
       </g>
      </g>
     </g>
    </g>
   </g>
  </g>
 </g>
</svg>
