<svg xmlns="http://www.w3.org/2000/svg" width="454" height="302" viewBox="0 0 454 302"><defs><style type="text/css"/></defs><g transform="translate(-23.974996209144592 37) scale(1)"><g class="relationship"><g transform="translate(110 10) rotate(90)" stroke-width="2" stroke="#000000"><path d="M 12 0 L 92.5 0"/></g></g><g class="relationship"><g transform="translate(110 114.5) rotate(90)" stroke-width="2" stroke="#000000"><path d="M 12 0 L 92.5 0"/></g></g><g class="relationship"><g transform="translate(335.4499992132187 10) rotate(90)" stroke-width="2" stroke="#000000"><path d="M 12 0 L 92.5 0"/></g></g><g class="relationship"><g transform="translate(335.4499992132187 114.5) rotate(90)" stroke-width="2" stroke="#000000"><path d="M 12 0 L 92.5 0"/></g></g><g class="node"><g fill="#a4dd00" stroke="#000000" stroke-width="2"><circle cx="110" cy="114.5" r="11"/></g><g transform="translate(110 114.5)"><g transform="translate(14 -16)"><g transform="translate(0 0)"><g transform="translate(0 0)"><g fill="#ffffff" stroke="#000000" stroke-width="2"><rect x="0" y="0" width="47.650001525878906" height="14" rx="7" ry="7"/><text xml:space="preserve" x="7" y="10" stroke="none" font-family="sans-serif" font-size="10" font-weight="normal" fill="#000000">Author</text></g></g></g><g transform="translate(0 20)"><g transform="translate(0 0)" fill="white"><rect x="0" y="0" width="128.49999690055847" height="12" rx="0" ry="0" stroke="none"/><g font-family="sans-serif" font-size="10" font-weight="normal" fill="#000000" text-anchor="end"><text xml:space="preserve" x="34.90000033378601" y="9" stroke="none">name:</text><text xml:space="preserve" x="38.08333373069763" y="9" stroke="none" text-anchor="start">Leemon McHenry</text></g></g></g></g></g></g><g class="node"><g fill="#fe9200" stroke="#000000" stroke-width="2"><circle cx="110" cy="10" r="11"/></g><g transform="translate(110 10)"><g transform="translate(8.572527594031472e-16 -46)"><g transform="translate(0 0)"><g transform="translate(-24.04166603088379 0)"><g fill="#ffffff" stroke="#000000" stroke-width="2"><rect x="0" y="0" width="46.08333206176758" height="14" rx="7" ry="7"/><text xml:space="preserve" x="7" y="10" stroke="none" font-family="sans-serif" font-size="10" font-weight="normal" fill="#000000">Article</text></g></g></g><g transform="translate(0 20)"><g transform="translate(-53.13333451747894 0)" fill="white"><rect x="0" y="0" width="106.26666903495789" height="12" rx="0" ry="0" stroke="none"/><g font-family="sans-serif" font-size="10" font-weight="normal" fill="#000000" text-anchor="end"><text xml:space="preserve" x="26.09999918937683" y="9" stroke="none">title:</text><text xml:space="preserve" x="29.283332586288452" y="9" stroke="none" text-anchor="start">Blood money...</text></g></g></g></g></g></g><g class="node"><g fill="#aea1ff" stroke="#000000" stroke-width="2"><circle cx="110" cy="219" r="11"/></g><g transform="translate(110 219)"><g transform="translate(8.572527594031472e-16 14)"><g transform="translate(0 0)"><g transform="translate(-31.674999237060547 0)"><g fill="#ffffff" stroke="#000000" stroke-width="2"><rect x="0" y="0" width="61.349998474121094" height="14" rx="7" ry="7"/><text xml:space="preserve" x="7" y="10" stroke="none" font-family="sans-serif" font-size="10" font-weight="normal" fill="#000000">Affiliation</text></g></g></g><g transform="translate(0 20)"><g transform="translate(-86.02500379085541 0)" fill="white"><rect x="0" y="0" width="172.05000758171082" height="12" rx="0" ry="0" stroke="none"/><g font-family="sans-serif" font-size="10" font-weight="normal" fill="#000000" text-anchor="end"><text xml:space="preserve" x="34.90000033378601" y="9" stroke="none">name:</text><text xml:space="preserve" x="38.08333373069763" y="9" stroke="none" text-anchor="start">California State University</text></g></g></g></g></g></g><g class="node"><g fill="#a4dd00" stroke="#000000" stroke-width="2"><circle cx="335.4499992132187" cy="114.5" r="11"/></g><g transform="translate(335.4499992132187 114.5)"><g transform="translate(14 -16)"><g transform="translate(0 0)"><g transform="translate(0 0)"><g fill="#ffffff" stroke="#000000" stroke-width="2"><rect x="0" y="0" width="47.650001525878906" height="14" rx="7" ry="7"/><text xml:space="preserve" x="7" y="10" stroke="none" font-family="sans-serif" font-size="10" font-weight="normal" fill="#000000">Author</text></g></g></g><g transform="translate(0 20)"><g transform="translate(0 0)" fill="white"><rect x="0" y="0" width="128.49999690055847" height="12" rx="0" ry="0" stroke="none"/><g font-family="sans-serif" font-size="10" font-weight="normal" fill="#000000" text-anchor="end"><text xml:space="preserve" x="34.90000033378601" y="9" stroke="none">name:</text><text xml:space="preserve" x="38.08333373069763" y="9" stroke="none" text-anchor="start">Leemon McHenry</text></g></g></g></g></g></g><g class="node"><g fill="#fe9200" stroke="#000000" stroke-width="2"><circle cx="335.4499992132187" cy="10" r="11"/></g><g transform="translate(335.4499992132187 10)"><g transform="translate(8.572527594031472e-16 -46)"><g transform="translate(0 0)"><g transform="translate(-24.04166603088379 0)"><g fill="#ffffff" stroke="#000000" stroke-width="2"><rect x="0" y="0" width="46.08333206176758" height="14" rx="7" ry="7"/><text xml:space="preserve" x="7" y="10" stroke="none" font-family="sans-serif" font-size="10" font-weight="normal" fill="#000000">Article</text></g></g></g><g transform="translate(0 20)"><g transform="translate(-88.94166886806488 0)" fill="white"><rect x="0" y="0" width="177.88333773612976" height="12" rx="0" ry="0" stroke="none"/><g font-family="sans-serif" font-size="10" font-weight="normal" fill="#000000" text-anchor="end"><text xml:space="preserve" x="26.09999918937683" y="9" stroke="none">title:</text><text xml:space="preserve" x="29.283332586288452" y="9" stroke="none" text-anchor="start">Conflicted medical journals...</text></g></g></g></g></g></g><g class="node"><g fill="#aea1ff" stroke="#000000" stroke-width="2"><circle cx="335.4499992132187" cy="219" r="11"/></g><g transform="translate(335.4499992132187 219)"><g transform="translate(8.572527594031472e-16 14)"><g transform="translate(0 0)"><g transform="translate(-31.674999237060547 0)"><g fill="#ffffff" stroke="#000000" stroke-width="2"><rect x="0" y="0" width="61.349998474121094" height="14" rx="7" ry="7"/><text xml:space="preserve" x="7" y="10" stroke="none" font-family="sans-serif" font-size="10" font-weight="normal" fill="#000000">Affiliation</text></g></g></g><g transform="translate(0 20)"><g transform="translate(-75.54166638851166 0)" fill="white"><rect x="0" y="0" width="151.08333277702332" height="12" rx="0" ry="0" stroke="none"/><g font-family="sans-serif" font-size="10" font-weight="normal" fill="#000000" text-anchor="end"><text xml:space="preserve" x="34.90000033378601" y="9" stroke="none">name:</text><text xml:space="preserve" x="38.08333373069763" y="9" stroke="none" text-anchor="start">University of Adelaide</text></g></g></g></g></g></g></g></svg>