<?xml version="1.0" encoding="UTF-8"?>
<!-- Created with Inkscape (http://www.inkscape.org/) -->
<svg width="234.91mm" height="65.947mm" version="1.1" viewBox="0 0 234.91 65.947" xmlns="http://www.w3.org/2000/svg">
 <defs>
  <style type="text/css"/>
  <style type="text/css"/>
  <style type="text/css"/>
  <style type="text/css"/>
  <style type="text/css"/>
  <style type="text/css"/>
  <style type="text/css"/>
 </defs>
 <g transform="translate(38.098 -140.17)">
  <g transform="matrix(.26458 0 0 .26458 17.848 142.82)">
   <g class="relationship" stroke="#000" stroke-width="2">
    <g transform="rotate(90 -47 -10)">
     <path d="m12 0h54"/>
    </g>
    <g transform="rotate(90,-86,29)">
     <path d="m12 0h54"/>
    </g>
   </g>
   <g class="node">
    <g fill="#fe9200" stroke="#000" stroke-width="2">
     <circle cx="-57" cy="37" r="11"/>
    </g>
    <g transform="translate(-57 37)">
     <g transform="translate(0,-46)">
      <g transform="translate(-24.042)">
       <g fill="#fff" stroke="#000" stroke-width="2">
        <rect width="46.083" height="14" rx="7" ry="7"/>
        <text x="7" y="10" fill="#000000" font-family="sans-serif" font-size="10px" stroke="none" xml:space="preserve">Article</text>
       </g>
      </g>
      <g transform="translate(0,20)">
       <g transform="translate(-67.533)" fill="#fff">
        <rect width="135.07" height="12" rx="0" ry="0"/>
        <g fill="#000" font-family="sans-serif" font-size="10px" text-anchor="end">
         <text x="26.099998" y="9" xml:space="preserve">title:</text>
         <text x="29.283333" y="9" text-anchor="start" xml:space="preserve">Blood Money...</text>
        </g>
       </g>
      </g>
     </g>
    </g>
    <g fill="#a4dd00" stroke="#000" stroke-width="2">
     <circle cx="-57" cy="115" r="11"/>
    </g>
    <g transform="translate(-57,115)">
     <g transform="translate(-14,-16)">
      <g transform="translate(-49.65)">
       <g fill="#fff" stroke="#000" stroke-width="2">
        <rect width="47.65" height="14" rx="7" ry="7"/>
        <text x="7" y="10" fill="#000000" font-family="sans-serif" font-size="10px" stroke="none" xml:space="preserve">Author</text>
       </g>
      </g>
      <g transform="translate(0,20)">
       <g transform="translate(-128.5)" fill="#fff">
        <rect width="128.5" height="12" rx="0" ry="0"/>
        <g fill="#000" font-family="sans-serif" font-size="10px" text-anchor="end">
         <text x="34.900002" y="9" xml:space="preserve">name:</text>
         <text x="38.083332" y="9" text-anchor="start" xml:space="preserve">Leemon McHenry</text>
        </g>
       </g>
      </g>
     </g>
    </g>
    <g fill="#7b64ff" stroke="#000" stroke-width="2">
     <circle cx="-57" cy="193" r="11"/>
    </g>
    <g transform="translate(-57,193)">
     <g transform="translate(0,14)">
      <g transform="translate(-31.675)">
       <g fill="#fff" stroke="#000" stroke-width="2">
        <rect width="61.35" height="14" rx="7" ry="7"/>
        <text x="7" y="10" fill="#000000" font-family="sans-serif" font-size="10px" stroke="none" xml:space="preserve">Affiliation</text>
       </g>
      </g>
      <g transform="translate(0,20)">
       <g transform="translate(-154.45)" fill="#fff">
        <rect width="308.9" height="12" rx="0" ry="0"/>
        <g fill="#000" font-family="sans-serif" font-size="10px" text-anchor="end">
         <text x="34.900002" y="9" xml:space="preserve">name:</text>
         <text x="38.083332" y="9" text-anchor="start" xml:space="preserve">Department of Philosophy, California State University</text>
        </g>
       </g>
      </g>
     </g>
    </g>
   </g>
  </g>
  <g transform="matrix(.26458 0 0 .26458 100.18 142.88)">
   <g class="relationship" stroke="#000" stroke-width="2">
    <g transform="rotate(90 -47 -10)">
     <path d="m12 0h54"/>
    </g>
    <g transform="rotate(90,-86,29)">
     <path d="m12 0h54"/>
    </g>
   </g>
   <g class="node">
    <g fill="#fe9200" stroke="#000" stroke-width="2">
     <circle cx="-57" cy="37" r="11"/>
    </g>
    <g transform="translate(-57 37)">
     <g transform="translate(0,-46)">
      <g transform="translate(-24.042)">
       <g fill="#fff" stroke="#000" stroke-width="2">
        <rect width="46.083" height="14" rx="7" ry="7"/>
        <text x="7" y="10" fill="#000000" font-family="sans-serif" font-size="10px" stroke="none" xml:space="preserve">Article</text>
       </g>
      </g>
      <g transform="translate(0,20)">
       <g transform="translate(-67.533)" fill="#fff">
        <rect width="135.07" height="12" rx="0" ry="0"/>
        <g fill="#000" font-family="sans-serif" font-size="10px" text-anchor="end">
         <text x="26.099998" y="9" xml:space="preserve">title:</text>
         <text x="29.283333" y="9" text-anchor="start" xml:space="preserve">Conflicted medical...</text>
        </g>
       </g>
      </g>
     </g>
    </g>
    <g fill="#a4dd00" stroke="#000" stroke-width="2">
     <circle cx="-57" cy="115" r="11"/>
    </g>
    <g transform="translate(-57,115)">
     <g transform="translate(-14,-16)">
      <g transform="translate(-49.65)">
       <g fill="#fff" stroke="#000" stroke-width="2">
        <rect width="47.65" height="14" rx="7" ry="7"/>
        <text x="7" y="10" fill="#000000" font-family="sans-serif" font-size="10px" stroke="none" xml:space="preserve">Author</text>
       </g>
      </g>
      <g transform="translate(0,20)">
       <g transform="translate(-128.5)" fill="#fff">
        <rect width="128.5" height="12" rx="0" ry="0"/>
        <g fill="#000" font-family="sans-serif" font-size="10px" text-anchor="end">
         <text x="34.900002" y="9" xml:space="preserve">name:</text>
         <text x="38.083332" y="9" text-anchor="start" xml:space="preserve">Leemon McHenry</text>
        </g>
       </g>
      </g>
     </g>
    </g>
    <g fill="#7b64ff" stroke="#000" stroke-width="2">
     <circle cx="-57" cy="193" r="11"/>
    </g>
    <g transform="translate(-57,193)">
     <g transform="translate(0,14)">
      <g transform="translate(-31.675)">
       <g fill="#fff" stroke="#000" stroke-width="2">
        <rect width="61.35" height="14" rx="7" ry="7"/>
        <text x="7" y="10" fill="#000000" font-family="sans-serif" font-size="10px" stroke="none" xml:space="preserve">Affiliation</text>
       </g>
      </g>
      <g transform="translate(0,20)">
       <g transform="translate(-136.76)" fill="#fff">
        <rect width="273.52" height="12" rx="0" ry="0"/>
        <g fill="#000" font-family="sans-serif" font-size="10px" text-anchor="end">
         <text x="34.900002" y="9" xml:space="preserve">name:</text>
         <text x="38.083332" y="9" text-anchor="start" xml:space="preserve">Discipline of Psychiatry, University of Adelaide</text>
        </g>
       </g>
      </g>
     </g>
    </g>
   </g>
  </g>
  <g transform="matrix(.26458 0 0 .26458 175.71 142.87)">
   <g class="relationship" stroke="#000" stroke-width="2">
    <g transform="rotate(90 -47 -10)">
     <path d="m12 0h54"/>
    </g>
    <g transform="rotate(90,-86,29)">
     <path d="m12 0h54"/>
    </g>
   </g>
   <g class="node">
    <g fill="#fe9200" stroke="#000" stroke-width="2">
     <circle cx="-57" cy="37" r="11"/>
    </g>
    <g transform="translate(-57 37)">
     <g transform="translate(0,-46)">
      <g transform="translate(-24.042)">
       <g fill="#fff" stroke="#000" stroke-width="2">
        <rect width="46.083" height="14" rx="7" ry="7"/>
        <text x="7" y="10" fill="#000000" font-family="sans-serif" font-size="10px" stroke="none" xml:space="preserve">Article</text>
       </g>
      </g>
      <g transform="translate(0,20)">
       <g transform="translate(-67.533)" fill="#fff">
        <rect width="135.07" height="12" rx="0" ry="0"/>
        <g fill="#000" font-family="sans-serif" font-size="10px" text-anchor="end">
         <text x="26.099998" y="9" xml:space="preserve">title:</text>
         <text x="29.283333" y="9" text-anchor="start" xml:space="preserve">Conflicted medical...</text>
        </g>
       </g>
      </g>
     </g>
    </g>
    <g fill="#a4dd00" stroke="#000" stroke-width="2">
     <circle cx="-57" cy="115" r="11"/>
    </g>
    <g transform="translate(-57,115)">
     <g transform="translate(-14,-16)">
      <g transform="translate(-49.65)">
       <g fill="#fff" stroke="#000" stroke-width="2">
        <rect width="47.65" height="14" rx="7" ry="7"/>
        <text x="7" y="10" fill="#000000" font-family="sans-serif" font-size="10px" stroke="none" xml:space="preserve">Author</text>
       </g>
      </g>
      <g transform="translate(0,20)">
       <g transform="translate(-128.5)" fill="#fff">
        <rect width="128.5" height="12" rx="0" ry="0"/>
        <g fill="#000" font-family="sans-serif" font-size="10px" text-anchor="end">
         <text x="34.900002" y="9" xml:space="preserve">name:</text>
         <text x="38.083332" y="9" text-anchor="start" xml:space="preserve">Mellad Khoshnood</text>
        </g>
       </g>
      </g>
     </g>
    </g>
    <g fill="#7b64ff" stroke="#000" stroke-width="2">
     <circle cx="-57" cy="193" r="11"/>
    </g>
    <g transform="translate(-57,193)">
     <g transform="translate(0,14)">
      <g transform="translate(-31.675)">
       <g fill="#fff" stroke="#000" stroke-width="2">
        <rect width="61.35" height="14" rx="7" ry="7"/>
        <text x="7" y="10" fill="#000000" font-family="sans-serif" font-size="10px" stroke="none" xml:space="preserve">Affiliation</text>
       </g>
      </g>
      <g transform="translate(0,20)">
       <g transform="translate(-136.76)" fill="#fff">
        <rect width="273.52" height="12" rx="0" ry="0"/>
        <g fill="#000" font-family="sans-serif" font-size="10px" text-anchor="end">
         <text x="34.900002" y="9" xml:space="preserve">name:</text>
         <text x="38.083332" y="9" text-anchor="start" xml:space="preserve">Discipline of Psychiatry, University of Adelaide</text>
        </g>
       </g>
      </g>
     </g>
    </g>
   </g>
  </g>
 </g>
</svg>
