<svg xmlns="http://www.w3.org/2000/svg" width="590" height="308" viewBox="0 0 590 308"><defs><style type="text/css"/></defs><g transform="translate(208.51947309308332 57.17549822118093) scale(1)"><g class="relationship"><g transform="translate(282.5171649614313 97.00679849186005) rotate(-90)" stroke-width="2" stroke="#000000"><path d="M 12 0 L 95.00692346832147 0"/></g></g><g class="relationship"><g transform="translate(282.5171649614313 203.83834871546202) rotate(-90)" stroke-width="2" stroke="#000000"><path d="M 12 0 L 94.83155022360197 0"/></g></g><g class="relationship"><g transform="translate(282.5171649614313 97.00679849186005) rotate(180)" stroke-width="2" stroke="#000000"><path d="M 12 0 L 95.00692346832147 0"/></g></g><g class="relationship"><g transform="translate(68.50346173416071 96.83142524714054) rotate(-90)" stroke-width="2" stroke="#000000"><path d="M 12 0 L 95.00692346832147 0"/></g></g><g class="relationship"><g transform="translate(68.50346173416071 96.83142524714054) rotate(90.00000051063532)" stroke-width="2" stroke="#000000"><path d="M 12 0 L 95.00692346832147 0"/></g></g><g class="relationship"><g transform="translate(-61.76947619252485 96.61792113202921) rotate(0.09390187975184705)" stroke-width="2" stroke="#000000"><path d="M 12 0 L 118.27311288234898 0"/></g></g><g class="relationship"><g transform="translate(175.51024149310985 97.00679849186005) rotate(-179.90609812024817)" stroke-width="2" stroke="#000000"><path d="M 12 0 L 95.00692346832147 0"/></g></g><g class="node"><g fill="#a4dd00" stroke="#000000" stroke-width="2"><circle cx="175.51024149310985" cy="97.00679849186005" r="11"/></g><g transform="translate(175.51024149310985 97.00679849186005)"><g transform="translate(8.572527594031472e-16 14)"><g transform="translate(0 0)"><g transform="translate(-24.825000762939453 0)"><g fill="#ffffff" stroke="#000000" stroke-width="2"><rect x="0" y="0" width="47.650001525878906" height="14" rx="7" ry="7"/><text xml:space="preserve" x="7" y="10" stroke="none" font-family="sans-serif" font-size="10" font-weight="normal" fill="#000000">Author</text></g></g></g><g transform="translate(0 20)"><g transform="translate(-64.24999845027924 0)" fill="white"><rect x="0" y="0" width="128.49999690055847" height="12" rx="0" ry="0" stroke="none"/><g font-family="sans-serif" font-size="10" font-weight="normal" fill="#000000" text-anchor="end"><text xml:space="preserve" x="34.90000033378601" y="9" stroke="none">name:</text><text xml:space="preserve" x="38.08333373069763" y="9" stroke="none" text-anchor="start">Leemon McHenry</text></g></g></g></g></g></g><g class="node"><g fill="#fe9200" stroke="#000000" stroke-width="2"><circle cx="68.50346173416071" cy="-10.17549822118093" r="11"/></g><g transform="translate(68.50346173416071 -10.17549822118093)"><g transform="translate(8.572527594031472e-16 -46)"><g transform="translate(0 0)"><g transform="translate(-24.04166603088379 0)"><g fill="#ffffff" stroke="#000000" stroke-width="2"><rect x="0" y="0" width="46.08333206176758" height="14" rx="7" ry="7"/><text xml:space="preserve" x="7" y="10" stroke="none" font-family="sans-serif" font-size="10" font-weight="normal" fill="#000000">Article</text></g></g></g><g transform="translate(0 20)"><g transform="translate(-53.13333451747894 0)" fill="white"><rect x="0" y="0" width="106.26666903495789" height="12" rx="0" ry="0" stroke="none"/><g font-family="sans-serif" font-size="10" font-weight="normal" fill="#000000" text-anchor="end"><text xml:space="preserve" x="26.09999918937683" y="9" stroke="none">title:</text><text xml:space="preserve" x="29.283332586288452" y="9" stroke="none" text-anchor="start">Blood money...</text></g></g></g></g></g></g><g class="node"><g fill="#aea1ff" stroke="#000000" stroke-width="2"><circle cx="68.5034607804864" cy="203.83834871546202" r="11"/></g><g transform="translate(68.5034607804864 203.83834871546202)"><g transform="translate(8.572527594031472e-16 14)"><g transform="translate(0 0)"><g transform="translate(-31.674999237060547 0)"><g fill="#ffffff" stroke="#000000" stroke-width="2"><rect x="0" y="0" width="61.349998474121094" height="14" rx="7" ry="7"/><text xml:space="preserve" x="7" y="10" stroke="none" font-family="sans-serif" font-size="10" font-weight="normal" fill="#000000">Affiliation</text></g></g></g><g transform="translate(0 20)"><g transform="translate(-86.02500379085541 0)" fill="white"><rect x="0" y="0" width="172.05000758171082" height="12" rx="0" ry="0" stroke="none"/><g font-family="sans-serif" font-size="10" font-weight="normal" fill="#000000" text-anchor="end"><text xml:space="preserve" x="34.90000033378601" y="9" stroke="none">name:</text><text xml:space="preserve" x="38.08333373069763" y="9" stroke="none" text-anchor="start">California State University</text></g></g></g></g></g></g><g class="node"><g fill="#fe9200" stroke="#000000" stroke-width="2"><circle cx="282.5171649614313" cy="-10.000124976461422" r="11"/></g><g transform="translate(282.5171649614313 -10.000124976461422)"><g transform="translate(8.572527594031472e-16 -46)"><g transform="translate(0 0)"><g transform="translate(-24.04166603088379 0)"><g fill="#ffffff" stroke="#000000" stroke-width="2"><rect x="0" y="0" width="46.08333206176758" height="14" rx="7" ry="7"/><text xml:space="preserve" x="7" y="10" stroke="none" font-family="sans-serif" font-size="10" font-weight="normal" fill="#000000">Article</text></g></g></g><g transform="translate(0 20)"><g transform="translate(-88.94166886806488 0)" fill="white"><rect x="0" y="0" width="177.88333773612976" height="12" rx="0" ry="0" stroke="none"/><g font-family="sans-serif" font-size="10" font-weight="normal" fill="#000000" text-anchor="end"><text xml:space="preserve" x="26.09999918937683" y="9" stroke="none">title:</text><text xml:space="preserve" x="29.283332586288452" y="9" stroke="none" text-anchor="start">Conflicted medical journals...</text></g></g></g></g></g></g><g class="node"><g fill="#aea1ff" stroke="#000000" stroke-width="2"><circle cx="282.5171649614313" cy="203.83834871546202" r="11"/></g><g transform="translate(282.5171649614313 203.83834871546202)"><g transform="translate(8.572527594031472e-16 14)"><g transform="translate(0 0)"><g transform="translate(-31.674999237060547 0)"><g fill="#ffffff" stroke="#000000" stroke-width="2"><rect x="0" y="0" width="61.349998474121094" height="14" rx="7" ry="7"/><text xml:space="preserve" x="7" y="10" stroke="none" font-family="sans-serif" font-size="10" font-weight="normal" fill="#000000">Affiliation</text></g></g></g><g transform="translate(0 20)"><g transform="translate(-75.54166638851166 0)" fill="white"><rect x="0" y="0" width="151.08333277702332" height="12" rx="0" ry="0" stroke="none"/><g font-family="sans-serif" font-size="10" font-weight="normal" fill="#000000" text-anchor="end"><text xml:space="preserve" x="34.90000033378601" y="9" stroke="none">name:</text><text xml:space="preserve" x="38.08333373069763" y="9" stroke="none" text-anchor="start">University of Adelaide</text></g></g></g></g></g></g><g class="node"><g fill="#ffffff" stroke="#000000" stroke-width="2"><circle cx="282.5171649614313" cy="97.00679849186005" r="11"/></g><g transform="translate(282.5171649614313 97.00679849186005)"><g transform="translate(14 -16)"><g transform="translate(0 0)"><g transform="translate(0 0)"><g fill="#ffffff" stroke="#000000" stroke-width="2"><rect x="0" y="0" width="76.08333206176758" height="14" rx="7" ry="7"/><text xml:space="preserve" x="7" y="10" stroke="none" font-family="sans-serif" font-size="10" font-weight="normal" fill="#000000">Contribution</text></g></g></g><g transform="translate(0 20)"><g transform="translate(0 0)" fill="white"><rect x="0" y="0" width="84.28333163261414" height="12" rx="0" ry="0" stroke="none"/><g font-family="sans-serif" font-size="10" font-weight="normal" fill="#000000" text-anchor="end"><text xml:space="preserve" x="43.13333201408386" y="9" stroke="none">id_md5:</text><text xml:space="preserve" x="46.31666541099548" y="9" stroke="none" text-anchor="start">a645...</text></g></g></g></g></g></g><g class="node"><g fill="#a4dd00" stroke="#000000" stroke-width="2"><circle cx="-61.76947619252485" cy="96.61792113202921" r="11"/></g><g transform="translate(-61.76947619252485 96.61792113202921)"><g transform="translate(-14 -15.999999999999998)"><g transform="translate(0 0)"><g transform="translate(-49.650001525878906 0)"><g fill="#ffffff" stroke="#000000" stroke-width="2"><rect x="0" y="0" width="47.650001525878906" height="14" rx="7" ry="7"/><text xml:space="preserve" x="7" y="10" stroke="none" font-family="sans-serif" font-size="10" font-weight="normal" fill="#000000">Author</text></g></g></g><g transform="translate(0 20)"><g transform="translate(-132.74999690055847 0)" fill="white"><rect x="0" y="0" width="132.74999690055847" height="12" rx="0" ry="0" stroke="none"/><g font-family="sans-serif" font-size="10" font-weight="normal" fill="#000000" text-anchor="end"><text xml:space="preserve" x="34.90000033378601" y="9" stroke="none">name:</text><text xml:space="preserve" x="38.08333373069763" y="9" stroke="none" text-anchor="start">Mellad Khoshnood</text></g></g></g></g></g></g><g class="node"><g fill="#ffffff" stroke="#000000" stroke-width="2"><circle cx="68.50346173416071" cy="96.83142524714054" r="11"/></g><g transform="translate(68.50346173416071 96.83142524714054)"><g transform="translate(9.899494936611665 -41.89949493661166)"><g transform="translate(0 0)"><g transform="translate(0 0)"><g fill="#ffffff" stroke="#000000" stroke-width="2"><rect x="0" y="0" width="76.08333206176758" height="14" rx="7" ry="7"/><text xml:space="preserve" x="7" y="10" stroke="none" font-family="sans-serif" font-size="10" font-weight="normal" fill="#000000">Contribution</text></g></g></g><g transform="translate(0 20)"><g transform="translate(0 0)" fill="white"><rect x="0" y="0" width="84.51666522026062" height="12" rx="0" ry="0" stroke="none"/><g font-family="sans-serif" font-size="10" font-weight="normal" fill="#000000" text-anchor="end"><text xml:space="preserve" x="43.13333201408386" y="9" stroke="none">id_md5:</text><text xml:space="preserve" x="46.31666541099548" y="9" stroke="none" text-anchor="start">2413...</text></g></g></g></g></g></g></g></svg>