<svg xmlns="http://www.w3.org/2000/svg" width="725" height="303" viewBox="0 0 725 303"><defs><style type="text/css"/></defs><g transform="translate(179.55000758171082 266) scale(1)"><g class="relationship"><g transform="translate(6.500000000000014 -114.49999999999997) rotate(0)" stroke-width="2" stroke="#000000"><path d="M 12 0 L 92.50000000000001 0"/></g></g><g class="relationship"><g transform="translate(275.8331069450133 -9.999999999999943) rotate(-147.6263414725946)" stroke-width="2" stroke="#000000"><path d="M 12 0 L 183.16711594207203 0"/></g></g><g class="relationship"><g transform="translate(111.00000000000003 -114.49999999999997) rotate(-90.00000000000001)" stroke-width="2" stroke="#000000"><path d="M 12 0 L 92.50000000000003 0"/></g></g><g class="relationship"><g transform="translate(380.3331031303161 -114.49999999999997) rotate(180)" stroke-width="2" stroke="#000000"><path d="M 12 0 L 92.50000000000006 0"/></g></g><g class="relationship"><g transform="translate(275.83310313031603 -114.49999999999997) rotate(-90)" stroke-width="2" stroke="#000000"><path d="M 12 0 L 92.50000000000003 0"/></g></g><g class="relationship"><g transform="translate(275.8331069450133 -9.999999999999943) rotate(-90.00000209154119)" stroke-width="2" stroke="#000000"><path d="M 12 0 L 92.5000000000001 0"/></g></g><g class="relationship"><g transform="translate(111.00000000000001 -9.999999999999957) rotate(-90)" stroke-width="2" stroke="#000000"><path d="M 12 0 L 92.50000000000001 0"/></g></g><g class="node"><g fill="#a4dd00" stroke="#000000" stroke-width="2"><circle cx="275.8331069450133" cy="-9.999999999999943" r="11"/></g><g transform="translate(275.8331069450133 -9.999999999999943)"><g transform="translate(9.899494936611665 9.899494936611664)"><g transform="translate(0 0)"><g transform="translate(0 0)"><g fill="#ffffff" stroke="#000000" stroke-width="2"><rect x="0" y="0" width="47.650001525878906" height="14" rx="7" ry="7"/><text xml:space="preserve" x="7" y="10" stroke="none" font-family="sans-serif" font-size="10" font-weight="normal" fill="#000000">Author</text></g></g></g><g transform="translate(0 20)"><g transform="translate(0 0)" fill="white"><rect x="0" y="0" width="128.49999690055847" height="12" rx="0" ry="0" stroke="none"/><g font-family="sans-serif" font-size="10" font-weight="normal" fill="#000000" text-anchor="end"><text xml:space="preserve" x="34.90000033378601" y="9" stroke="none">name:</text><text xml:space="preserve" x="38.08333373069763" y="9" stroke="none" text-anchor="start">Leemon McHenry</text></g></g></g></g></g></g><g class="node"><g fill="#fe9200" stroke="#000000" stroke-width="2"><circle cx="111.00000000000001" cy="-219" r="11"/></g><g transform="translate(111.00000000000001 -219)"><g transform="translate(8.572527594031472e-16 -46)"><g transform="translate(0 0)"><g transform="translate(-24.04166603088379 0)"><g fill="#ffffff" stroke="#000000" stroke-width="2"><rect x="0" y="0" width="46.08333206176758" height="14" rx="7" ry="7"/><text xml:space="preserve" x="7" y="10" stroke="none" font-family="sans-serif" font-size="10" font-weight="normal" fill="#000000">Article</text></g></g></g><g transform="translate(0 20)"><g transform="translate(-53.13333451747894 0)" fill="white"><rect x="0" y="0" width="106.26666903495789" height="12" rx="0" ry="0" stroke="none"/><g font-family="sans-serif" font-size="10" font-weight="normal" fill="#000000" text-anchor="end"><text xml:space="preserve" x="26.09999918937683" y="9" stroke="none">title:</text><text xml:space="preserve" x="29.283332586288452" y="9" stroke="none" text-anchor="start">Blood money...</text></g></g></g></g></g></g><g class="node"><g fill="#aea1ff" stroke="#000000" stroke-width="2"><circle cx="6.500000000000014" cy="-114.49999999999997" r="11"/></g><g transform="translate(6.500000000000014 -114.49999999999997)"><g transform="translate(-14 -15.999999999999998)"><g transform="translate(0 0)"><g transform="translate(-63.349998474121094 0)"><g fill="#ffffff" stroke="#000000" stroke-width="2"><rect x="0" y="0" width="61.349998474121094" height="14" rx="7" ry="7"/><text xml:space="preserve" x="7" y="10" stroke="none" font-family="sans-serif" font-size="10" font-weight="normal" fill="#000000">Affiliation</text></g></g></g><g transform="translate(0 20)"><g transform="translate(-172.05000758171082 0)" fill="white"><rect x="0" y="0" width="172.05000758171082" height="12" rx="0" ry="0" stroke="none"/><g font-family="sans-serif" font-size="10" font-weight="normal" fill="#000000" text-anchor="end"><text xml:space="preserve" x="34.90000033378601" y="9" stroke="none">name:</text><text xml:space="preserve" x="38.08333373069763" y="9" stroke="none" text-anchor="start">California State University</text></g></g></g></g></g></g><g class="node"><g fill="#fe9200" stroke="#000000" stroke-width="2"><circle cx="275.83310313031603" cy="-219" r="11"/></g><g transform="translate(275.83310313031603 -219)"><g transform="translate(8.572527594031472e-16 -46)"><g transform="translate(0 0)"><g transform="translate(-24.04166603088379 0)"><g fill="#ffffff" stroke="#000000" stroke-width="2"><rect x="0" y="0" width="46.08333206176758" height="14" rx="7" ry="7"/><text xml:space="preserve" x="7" y="10" stroke="none" font-family="sans-serif" font-size="10" font-weight="normal" fill="#000000">Article</text></g></g></g><g transform="translate(0 20)"><g transform="translate(-88.94166886806488 0)" fill="white"><rect x="0" y="0" width="177.88333773612976" height="12" rx="0" ry="0" stroke="none"/><g font-family="sans-serif" font-size="10" font-weight="normal" fill="#000000" text-anchor="end"><text xml:space="preserve" x="26.09999918937683" y="9" stroke="none">title:</text><text xml:space="preserve" x="29.283332586288452" y="9" stroke="none" text-anchor="start">Conflicted medical journals...</text></g></g></g></g></g></g><g class="node"><g fill="#aea1ff" stroke="#000000" stroke-width="2"><circle cx="380.3331031303161" cy="-114.49999999999997" r="11"/></g><g transform="translate(380.3331031303161 -114.49999999999997)"><g transform="translate(14 -16)"><g transform="translate(0 0)"><g transform="translate(0 0)"><g fill="#ffffff" stroke="#000000" stroke-width="2"><rect x="0" y="0" width="61.349998474121094" height="14" rx="7" ry="7"/><text xml:space="preserve" x="7" y="10" stroke="none" font-family="sans-serif" font-size="10" font-weight="normal" fill="#000000">Affiliation</text></g></g></g><g transform="translate(0 20)"><g transform="translate(0 0)" fill="white"><rect x="0" y="0" width="151.08333277702332" height="12" rx="0" ry="0" stroke="none"/><g font-family="sans-serif" font-size="10" font-weight="normal" fill="#000000" text-anchor="end"><text xml:space="preserve" x="34.90000033378601" y="9" stroke="none">name:</text><text xml:space="preserve" x="38.08333373069763" y="9" stroke="none" text-anchor="start">University of Adelaide</text></g></g></g></g></g></g><g class="node"><g fill="#a4dd00" stroke="#000000" stroke-width="2"><circle cx="111.00000000000001" cy="-9.999999999999957" r="11"/></g><g transform="translate(111.00000000000001 -9.999999999999957)"><g transform="translate(8.572527594031472e-16 14)"><g transform="translate(0 0)"><g transform="translate(-24.825000762939453 0)"><g fill="#ffffff" stroke="#000000" stroke-width="2"><rect x="0" y="0" width="47.650001525878906" height="14" rx="7" ry="7"/><text xml:space="preserve" x="7" y="10" stroke="none" font-family="sans-serif" font-size="10" font-weight="normal" fill="#000000">Author</text></g></g></g><g transform="translate(0 20)"><g transform="translate(-66.37499845027924 0)" fill="white"><rect x="0" y="0" width="132.74999690055847" height="12" rx="0" ry="0" stroke="none"/><g font-family="sans-serif" font-size="10" font-weight="normal" fill="#000000" text-anchor="end"><text xml:space="preserve" x="34.90000033378601" y="9" stroke="none">name:</text><text xml:space="preserve" x="38.08333373069763" y="9" stroke="none" text-anchor="start">Mellad Khoshnood</text></g></g></g></g></g></g><g class="node"><g fill="#ffffff" stroke="#000000" stroke-width="2"><circle cx="111.00000000000003" cy="-114.49999999999997" r="11"/></g><g transform="translate(111.00000000000003 -114.49999999999997)"><g transform="translate(9.899494936611665 -41.89949493661166)"><g transform="translate(0 0)"><g transform="translate(0 0)"><g fill="#ffffff" stroke="#000000" stroke-width="2"><rect x="0" y="0" width="76.08333206176758" height="14" rx="7" ry="7"/><text xml:space="preserve" x="7" y="10" stroke="none" font-family="sans-serif" font-size="10" font-weight="normal" fill="#000000">Contribution</text></g></g></g><g transform="translate(0 20)"><g transform="translate(0 0)" fill="white"><rect x="0" y="0" width="47.11666750907898" height="12" rx="0" ry="0" stroke="none"/><g font-family="sans-serif" font-size="10" font-weight="normal" fill="#000000" text-anchor="end"><text xml:space="preserve" x="15.683333158493042" y="9" stroke="none">id:</text><text xml:space="preserve" x="18.866666555404663" y="9" stroke="none" text-anchor="start">2df...</text></g></g></g></g></g></g><g class="node"><g fill="#ffffff" stroke="#000000" stroke-width="2"><circle cx="275.83310313031603" cy="-114.49999999999997" r="11"/></g><g transform="translate(275.83310313031603 -114.49999999999997)"><g transform="translate(-14 -15.999999999999998)"><g transform="translate(0 0)"><g transform="translate(-78.08333206176758 0)"><g fill="#ffffff" stroke="#000000" stroke-width="2"><rect x="0" y="0" width="76.08333206176758" height="14" rx="7" ry="7"/><text xml:space="preserve" x="7" y="10" stroke="none" font-family="sans-serif" font-size="10" font-weight="normal" fill="#000000">Contribution</text></g></g></g><g transform="translate(0 20)"><g transform="translate(-47.133333921432495 0)" fill="white"><rect x="0" y="0" width="47.133333921432495" height="12" rx="0" ry="0" stroke="none"/><g font-family="sans-serif" font-size="10" font-weight="normal" fill="#000000" text-anchor="end"><text xml:space="preserve" x="15.683333158493042" y="9" stroke="none">id:</text><text xml:space="preserve" x="18.866666555404663" y="9" stroke="none" text-anchor="start">6zt...</text></g></g></g></g></g></g></g></svg>