<svg xmlns="http://www.w3.org/2000/svg" width="591" height="262" viewBox="0 0 591 262"><defs><style type="text/css"/></defs><g transform="translate(-536.0692174180125 432.3544623738812) scale(1)"><g class="relationship"><g transform="translate(718.018719936335 -216.26972487188795) rotate(-59.99999999999999)" stroke-width="2" stroke="#000000"><path d="M 12 0 L 85.621118712633 0"/></g></g><g class="relationship"><g transform="translate(766.8292792926514 -300.81209362288456) rotate(-90)" stroke-width="2" stroke="#000000"><path d="M 12 0 L 72.54236875099662 0"/></g></g><g class="relationship"><g transform="translate(899.4906439981879 -301.0255977379959) rotate(-90)" stroke-width="2" stroke="#000000"><path d="M 12 0 L 72.32886463588528 0"/></g></g><g class="relationship"><g transform="translate(965.8213263509554 -216.8435146854548) rotate(-128.2360947909362)" stroke-width="2" stroke="#000000"><path d="M 12 0 L 95.17454235241063 0"/></g></g><g class="relationship"><g transform="translate(833.1599616454197 -216.8435146854548) rotate(-128.3068469899048)" stroke-width="2" stroke="#000000"><path d="M 12 0 L 95.00692346832149 0"/></g></g><g class="relationship"><g transform="translate(899.4906439981879 -301.0255977379959) rotate(128.23609479093653)" stroke-width="2" stroke="#000000"><path d="M 12 0 L 95.17454235241112 0"/></g></g><g class="node"><g fill="#a4dd00" stroke="#000000" stroke-width="2"><circle cx="833.1599616454197" cy="-216.8435146854548" r="11"/></g><g transform="translate(833.1599616454197 -216.8435146854548)"><g transform="translate(8.572527594031472e-16 14)"><g transform="translate(0 0)"><g transform="translate(-24.825000762939453 0)"><g fill="#ffffff" stroke="#000000" stroke-width="2"><rect x="0" y="0" width="47.650001525878906" height="14" rx="7" ry="7"/><text xml:space="preserve" x="7" y="10" stroke="none" font-family="sans-serif" font-size="10" font-weight="normal" fill="#000000">Author</text></g></g></g><g transform="translate(0 20)"><g transform="translate(-64.24999845027924 0)" fill="white"><rect x="0" y="0" width="128.49999690055847" height="12" rx="0" ry="0" stroke="none"/><g font-family="sans-serif" font-size="10" font-weight="normal" fill="#000000" text-anchor="end"><text xml:space="preserve" x="34.90000033378601" y="9" stroke="none">name:</text><text xml:space="preserve" x="38.08333373069763" y="9" stroke="none" text-anchor="start">Leemon McHenry</text></g></g></g></g></g></g><g class="node"><g fill="#fe9200" stroke="#000000" stroke-width="2"><circle cx="766.8292792926514" cy="-385.3544623738812" r="11"/></g><g transform="translate(766.8292792926514 -385.3544623738812)"><g transform="translate(8.572527594031472e-16 -46)"><g transform="translate(0 0)"><g transform="translate(-24.04166603088379 0)"><g fill="#ffffff" stroke="#000000" stroke-width="2"><rect x="0" y="0" width="46.08333206176758" height="14" rx="7" ry="7"/><text xml:space="preserve" x="7" y="10" stroke="none" font-family="sans-serif" font-size="10" font-weight="normal" fill="#000000">Article</text></g></g></g><g transform="translate(0 20)"><g transform="translate(-53.13333451747894 0)" fill="white"><rect x="0" y="0" width="106.26666903495789" height="12" rx="0" ry="0" stroke="none"/><g font-family="sans-serif" font-size="10" font-weight="normal" fill="#000000" text-anchor="end"><text xml:space="preserve" x="26.09999918937683" y="9" stroke="none">title:</text><text xml:space="preserve" x="29.283332586288452" y="9" stroke="none" text-anchor="start">Blood money...</text></g></g></g></g></g></g><g class="node"><g fill="#aea1ff" stroke="#000000" stroke-width="2"><circle cx="718.018719936335" cy="-216.26972487188795" r="11"/></g><g transform="translate(718.018719936335 -216.26972487188795)"><g transform="translate(-9.899494936611664 9.899494936611665)"><g transform="translate(0 0)"><g transform="translate(-63.349998474121094 0)"><g fill="#ffffff" stroke="#000000" stroke-width="2"><rect x="0" y="0" width="61.349998474121094" height="14" rx="7" ry="7"/><text xml:space="preserve" x="7" y="10" stroke="none" font-family="sans-serif" font-size="10" font-weight="normal" fill="#000000">Affiliation</text></g></g></g><g transform="translate(0 20)"><g transform="translate(-172.05000758171082 0)" fill="white"><rect x="0" y="0" width="172.05000758171082" height="12" rx="0" ry="0" stroke="none"/><g font-family="sans-serif" font-size="10" font-weight="normal" fill="#000000" text-anchor="end"><text xml:space="preserve" x="34.90000033378601" y="9" stroke="none">name:</text><text xml:space="preserve" x="38.08333373069763" y="9" stroke="none" text-anchor="start">California State University</text></g></g></g></g></g></g><g class="node"><g fill="#fe9200" stroke="#000000" stroke-width="2"><circle cx="899.4906439981879" cy="-385.3544623738812" r="11"/></g><g transform="translate(899.4906439981879 -385.3544623738812)"><g transform="translate(8.572527594031472e-16 -46)"><g transform="translate(0 0)"><g transform="translate(-24.04166603088379 0)"><g fill="#ffffff" stroke="#000000" stroke-width="2"><rect x="0" y="0" width="46.08333206176758" height="14" rx="7" ry="7"/><text xml:space="preserve" x="7" y="10" stroke="none" font-family="sans-serif" font-size="10" font-weight="normal" fill="#000000">Article</text></g></g></g><g transform="translate(0 20)"><g transform="translate(-88.94166886806488 0)" fill="white"><rect x="0" y="0" width="177.88333773612976" height="12" rx="0" ry="0" stroke="none"/><g font-family="sans-serif" font-size="10" font-weight="normal" fill="#000000" text-anchor="end"><text xml:space="preserve" x="26.09999918937683" y="9" stroke="none">title:</text><text xml:space="preserve" x="29.283332586288452" y="9" stroke="none" text-anchor="start">Conflicted medical journals...</text></g></g></g></g></g></g><g class="node"><g fill="#aea1ff" stroke="#000000" stroke-width="2"><circle cx="965.8213263509554" cy="-216.8435146854548" r="11"/></g><g transform="translate(965.8213263509554 -216.8435146854548)"><g transform="translate(9.899494936611665 9.899494936611664)"><g transform="translate(0 0)"><g transform="translate(0 0)"><g fill="#ffffff" stroke="#000000" stroke-width="2"><rect x="0" y="0" width="61.349998474121094" height="14" rx="7" ry="7"/><text xml:space="preserve" x="7" y="10" stroke="none" font-family="sans-serif" font-size="10" font-weight="normal" fill="#000000">Affiliation</text></g></g></g><g transform="translate(0 20)"><g transform="translate(0 0)" fill="white"><rect x="0" y="0" width="151.08333277702332" height="12" rx="0" ry="0" stroke="none"/><g font-family="sans-serif" font-size="10" font-weight="normal" fill="#000000" text-anchor="end"><text xml:space="preserve" x="34.90000033378601" y="9" stroke="none">name:</text><text xml:space="preserve" x="38.08333373069763" y="9" stroke="none" text-anchor="start">University of Adelaide</text></g></g></g></g></g></g><g class="node"><g fill="#ffffff" stroke="#000000" stroke-width="2"><circle cx="766.8292792926514" cy="-300.81209362288456" r="11"/></g></g><g class="node"><g fill="#ffffff" stroke="#000000" stroke-width="2"><circle cx="899.4906439981879" cy="-301.0255977379959" r="11"/></g></g></g></svg>