<svg xmlns="http://www.w3.org/2000/svg" width="1061" height="298" viewBox="0 0 1061 298"><defs><style type="text/css"/></defs><g transform="translate(141.41672618771955 37) scale(1)"><g class="relationship"><g transform="translate(40.532776330602935 174.7759341371029) rotate(-60.00000000000002)" stroke-width="2" stroke="#000000"><path d="M 12 0 L 57.60065359942497 0"/></g></g><g class="relationship"><g transform="translate(135.6662062606314 219) rotate(-120.00000000000006)" stroke-width="2" stroke="#000000"><path d="M 12 0 L 108.66620626063182 0"/></g></g><g class="relationship"><g transform="translate(75.33310313031541 114.50000000000003) rotate(-90)" stroke-width="2" stroke="#000000"><path d="M 12 0 L 92.50000000000003 0"/></g></g><g class="relationship"><g transform="translate(360.9827755438217 174.7759341371029) rotate(-60.00000000000005)" stroke-width="2" stroke="#000000"><path d="M 12 0 L 57.600653599424945 0"/></g></g><g class="relationship"><g transform="translate(456.11620547385024 219.00000000000045) rotate(-120.00000000000001)" stroke-width="2" stroke="#000000"><path d="M 12 0 L 108.66620626063228 0"/></g></g><g class="relationship"><g transform="translate(395.7831023435341 114.50000000000003) rotate(-90)" stroke-width="2" stroke="#000000"><path d="M 12 0 L 92.50000000000003 0"/></g></g><g class="relationship"><g transform="translate(716.2331015567528 10) rotate(90)" stroke-width="2" stroke="#000000"><path d="M 12 0 L 92.50000000000003 0"/></g></g><g class="relationship"><g transform="translate(776.5662046870688 219) rotate(-120.00000000000006)" stroke-width="2" stroke="#000000"><path d="M 12 0 L 108.6662062606318 0"/></g></g><g class="relationship"><g transform="translate(716.2331015567528 114.50000000000003) rotate(119.99999999999999)" stroke-width="2" stroke="#000000"><path d="M 12 0 L 57.600653599425 0"/></g></g><g class="node"><g fill="#a4dd00" stroke="#000000" stroke-width="2"><circle cx="135.6662062606314" cy="219" r="11"/></g><g transform="translate(135.6662062606314 219)"><g transform="translate(9.899494936611665 9.899494936611664)"><g transform="translate(0 0)"><g transform="translate(0 0)"><g fill="#ffffff" stroke="#000000" stroke-width="2"><rect x="0" y="0" width="47.650001525878906" height="14" rx="7" ry="7"/><text xml:space="preserve" x="7" y="10" stroke="none" font-family="sans-serif" font-size="10" font-weight="normal" fill="#000000">Author</text></g></g></g><g transform="translate(0 20)"><g transform="translate(0 0)" fill="white"><rect x="0" y="0" width="128.49999690055847" height="12" rx="0" ry="0" stroke="none"/><g font-family="sans-serif" font-size="10" font-weight="normal" fill="#000000" text-anchor="end"><text xml:space="preserve" x="34.90000033378601" y="9" stroke="none">name:</text><text xml:space="preserve" x="38.08333373069763" y="9" stroke="none" text-anchor="start">Leemon McHenry</text></g></g></g></g></g></g><g class="node"><g fill="#fe9200" stroke="#000000" stroke-width="2"><circle cx="75.33310313031541" cy="10" r="11"/></g><g transform="translate(75.33310313031541 10)"><g transform="translate(8.572527594031472e-16 -46)"><g transform="translate(0 0)"><g transform="translate(-24.04166603088379 0)"><g fill="#ffffff" stroke="#000000" stroke-width="2"><rect x="0" y="0" width="46.08333206176758" height="14" rx="7" ry="7"/><text xml:space="preserve" x="7" y="10" stroke="none" font-family="sans-serif" font-size="10" font-weight="normal" fill="#000000">Article</text></g></g></g><g transform="translate(0 20)"><g transform="translate(-53.13333451747894 0)" fill="white"><rect x="0" y="0" width="106.26666903495789" height="12" rx="0" ry="0" stroke="none"/><g font-family="sans-serif" font-size="10" font-weight="normal" fill="#000000" text-anchor="end"><text xml:space="preserve" x="26.09999918937683" y="9" stroke="none">title:</text><text xml:space="preserve" x="29.283332586288452" y="9" stroke="none" text-anchor="start">Blood money...</text></g></g></g></g></g></g><g class="node"><g fill="#aea1ff" stroke="#000000" stroke-width="2"><circle cx="40.532776330602935" cy="174.7759341371029" r="11"/></g><g transform="translate(40.532776330602935 174.7759341371029)"><g transform="translate(-9.899494936611664 9.899494936611665)"><g transform="translate(0 0)"><g transform="translate(-63.349998474121094 0)"><g fill="#ffffff" stroke="#000000" stroke-width="2"><rect x="0" y="0" width="61.349998474121094" height="14" rx="7" ry="7"/><text xml:space="preserve" x="7" y="10" stroke="none" font-family="sans-serif" font-size="10" font-weight="normal" fill="#000000">Affiliation</text></g></g></g><g transform="translate(0 20)"><g transform="translate(-172.05000758171082 0)" fill="white"><rect x="0" y="0" width="172.05000758171082" height="12" rx="0" ry="0" stroke="none"/><g font-family="sans-serif" font-size="10" font-weight="normal" fill="#000000" text-anchor="end"><text xml:space="preserve" x="34.90000033378601" y="9" stroke="none">name:</text><text xml:space="preserve" x="38.08333373069763" y="9" stroke="none" text-anchor="start">California State University</text></g></g></g></g></g></g><g class="node"><g fill="#a4dd00" stroke="#000000" stroke-width="2"><circle cx="456.11620547385024" cy="219.00000000000045" r="11"/></g><g transform="translate(456.11620547385024 219.00000000000045)"><g transform="translate(9.899494936611665 9.899494936611664)"><g transform="translate(0 0)"><g transform="translate(0 0)"><g fill="#ffffff" stroke="#000000" stroke-width="2"><rect x="0" y="0" width="47.650001525878906" height="14" rx="7" ry="7"/><text xml:space="preserve" x="7" y="10" stroke="none" font-family="sans-serif" font-size="10" font-weight="normal" fill="#000000">Author</text></g></g></g><g transform="translate(0 20)"><g transform="translate(0 0)" fill="white"><rect x="0" y="0" width="128.49999690055847" height="12" rx="0" ry="0" stroke="none"/><g font-family="sans-serif" font-size="10" font-weight="normal" fill="#000000" text-anchor="end"><text xml:space="preserve" x="34.90000033378601" y="9" stroke="none">name:</text><text xml:space="preserve" x="38.08333373069763" y="9" stroke="none" text-anchor="start">Leemon McHenry</text></g></g></g></g></g></g><g class="node"><g fill="#fe9200" stroke="#000000" stroke-width="2"><circle cx="395.7831023435341" cy="10" r="11"/></g><g transform="translate(395.7831023435341 10)"><g transform="translate(8.572527594031472e-16 -46)"><g transform="translate(0 0)"><g transform="translate(-24.04166603088379 0)"><g fill="#ffffff" stroke="#000000" stroke-width="2"><rect x="0" y="0" width="46.08333206176758" height="14" rx="7" ry="7"/><text xml:space="preserve" x="7" y="10" stroke="none" font-family="sans-serif" font-size="10" font-weight="normal" fill="#000000">Article</text></g></g></g><g transform="translate(0 20)"><g transform="translate(-88.94166886806488 0)" fill="white"><rect x="0" y="0" width="177.88333773612976" height="12" rx="0" ry="0" stroke="none"/><g font-family="sans-serif" font-size="10" font-weight="normal" fill="#000000" text-anchor="end"><text xml:space="preserve" x="26.09999918937683" y="9" stroke="none">title:</text><text xml:space="preserve" x="29.283332586288452" y="9" stroke="none" text-anchor="start">Conflicted medical journals...</text></g></g></g></g></g></g><g class="node"><g fill="#aea1ff" stroke="#000000" stroke-width="2"><circle cx="360.9827755438217" cy="174.7759341371029" r="11"/></g><g transform="translate(360.9827755438217 174.7759341371029)"><g transform="translate(-9.899494936611664 9.899494936611665)"><g transform="translate(0 0)"><g transform="translate(-63.349998474121094 0)"><g fill="#ffffff" stroke="#000000" stroke-width="2"><rect x="0" y="0" width="61.349998474121094" height="14" rx="7" ry="7"/><text xml:space="preserve" x="7" y="10" stroke="none" font-family="sans-serif" font-size="10" font-weight="normal" fill="#000000">Affiliation</text></g></g></g><g transform="translate(0 20)"><g transform="translate(-151.08333277702332 0)" fill="white"><rect x="0" y="0" width="151.08333277702332" height="12" rx="0" ry="0" stroke="none"/><g font-family="sans-serif" font-size="10" font-weight="normal" fill="#000000" text-anchor="end"><text xml:space="preserve" x="34.90000033378601" y="9" stroke="none">name:</text><text xml:space="preserve" x="38.08333373069763" y="9" stroke="none" text-anchor="start">University of Adelaide</text></g></g></g></g></g></g><g class="node"><g fill="#a4dd00" stroke="#000000" stroke-width="2"><circle cx="776.5662046870688" cy="219" r="11"/></g><g transform="translate(776.5662046870688 219)"><g transform="translate(9.899494936611665 9.899494936611664)"><g transform="translate(0 0)"><g transform="translate(0 0)"><g fill="#ffffff" stroke="#000000" stroke-width="2"><rect x="0" y="0" width="47.650001525878906" height="14" rx="7" ry="7"/><text xml:space="preserve" x="7" y="10" stroke="none" font-family="sans-serif" font-size="10" font-weight="normal" fill="#000000">Author</text></g></g></g><g transform="translate(0 20)"><g transform="translate(0 0)" fill="white"><rect x="0" y="0" width="132.74999690055847" height="12" rx="0" ry="0" stroke="none"/><g font-family="sans-serif" font-size="10" font-weight="normal" fill="#000000" text-anchor="end"><text xml:space="preserve" x="34.90000033378601" y="9" stroke="none">name:</text><text xml:space="preserve" x="38.08333373069763" y="9" stroke="none" text-anchor="start">Mellad Khoshnood</text></g></g></g></g></g></g><g class="node"><g fill="#fe9200" stroke="#000000" stroke-width="2"><circle cx="716.2331015567528" cy="10" r="11"/></g><g transform="translate(716.2331015567528 10)"><g transform="translate(8.572527594031472e-16 -46)"><g transform="translate(0 0)"><g transform="translate(-24.04166603088379 0)"><g fill="#ffffff" stroke="#000000" stroke-width="2"><rect x="0" y="0" width="46.08333206176758" height="14" rx="7" ry="7"/><text xml:space="preserve" x="7" y="10" stroke="none" font-family="sans-serif" font-size="10" font-weight="normal" fill="#000000">Article</text></g></g></g><g transform="translate(0 20)"><g transform="translate(-53.13333451747894 0)" fill="white"><rect x="0" y="0" width="106.26666903495789" height="12" rx="0" ry="0" stroke="none"/><g font-family="sans-serif" font-size="10" font-weight="normal" fill="#000000" text-anchor="end"><text xml:space="preserve" x="26.09999918937683" y="9" stroke="none">title:</text><text xml:space="preserve" x="29.283332586288452" y="9" stroke="none" text-anchor="start">Blood money...</text></g></g></g></g></g></g><g class="node"><g fill="#aea1ff" stroke="#000000" stroke-width="2"><circle cx="681.4327747570403" cy="174.77593413710292" r="11"/></g><g transform="translate(681.4327747570403 174.77593413710292)"><g transform="translate(-9.899494936611664 9.899494936611665)"><g transform="translate(0 0)"><g transform="translate(-63.349998474121094 0)"><g fill="#ffffff" stroke="#000000" stroke-width="2"><rect x="0" y="0" width="61.349998474121094" height="14" rx="7" ry="7"/><text xml:space="preserve" x="7" y="10" stroke="none" font-family="sans-serif" font-size="10" font-weight="normal" fill="#000000">Affiliation</text></g></g></g><g transform="translate(0 20)"><g transform="translate(-172.05000758171082 0)" fill="white"><rect x="0" y="0" width="172.05000758171082" height="12" rx="0" ry="0" stroke="none"/><g font-family="sans-serif" font-size="10" font-weight="normal" fill="#000000" text-anchor="end"><text xml:space="preserve" x="34.90000033378601" y="9" stroke="none">name:</text><text xml:space="preserve" x="38.08333373069763" y="9" stroke="none" text-anchor="start">California State University</text></g></g></g></g></g></g><g class="node"><g fill="#ffffff" stroke="#000000" stroke-width="2"><circle cx="75.33310313031541" cy="114.50000000000003" r="11"/></g><g transform="translate(75.33310313031541 114.50000000000003)"><g transform="translate(-14 -15.999999999999998)"><g transform="translate(0 0)"><g transform="translate(-78.08333206176758 0)"><g fill="#ffffff" stroke="#000000" stroke-width="2"><rect x="0" y="0" width="76.08333206176758" height="14" rx="7" ry="7"/><text xml:space="preserve" x="7" y="10" stroke="none" font-family="sans-serif" font-size="10" font-weight="normal" fill="#000000">Contribution</text></g></g></g><g transform="translate(0 20)"><g transform="translate(-47.11666750907898 0)" fill="white"><rect x="0" y="0" width="47.11666750907898" height="12" rx="0" ry="0" stroke="none"/><g font-family="sans-serif" font-size="10" font-weight="normal" fill="#000000" text-anchor="end"><text xml:space="preserve" x="15.683333158493042" y="9" stroke="none">id:</text><text xml:space="preserve" x="18.866666555404663" y="9" stroke="none" text-anchor="start">2df...</text></g></g></g></g></g></g><g class="node"><g fill="#ffffff" stroke="#000000" stroke-width="2"><circle cx="395.7831023435341" cy="114.50000000000003" r="11"/></g><g transform="translate(395.7831023435341 114.50000000000003)"><g transform="translate(-14 -15.999999999999998)"><g transform="translate(0 0)"><g transform="translate(-78.08333206176758 0)"><g fill="#ffffff" stroke="#000000" stroke-width="2"><rect x="0" y="0" width="76.08333206176758" height="14" rx="7" ry="7"/><text xml:space="preserve" x="7" y="10" stroke="none" font-family="sans-serif" font-size="10" font-weight="normal" fill="#000000">Contribution</text></g></g></g><g transform="translate(0 20)"><g transform="translate(-47.133333921432495 0)" fill="white"><rect x="0" y="0" width="47.133333921432495" height="12" rx="0" ry="0" stroke="none"/><g font-family="sans-serif" font-size="10" font-weight="normal" fill="#000000" text-anchor="end"><text xml:space="preserve" x="15.683333158493042" y="9" stroke="none">id:</text><text xml:space="preserve" x="18.866666555404663" y="9" stroke="none" text-anchor="start">6zt...</text></g></g></g></g></g></g><g class="node"><g fill="#ffffff" stroke="#000000" stroke-width="2"><circle cx="716.2331015567528" cy="114.50000000000003" r="11"/></g><g transform="translate(716.2331015567528 114.50000000000003)"><g transform="translate(-14 -15.999999999999998)"><g transform="translate(0 0)"><g transform="translate(-78.08333206176758 0)"><g fill="#ffffff" stroke="#000000" stroke-width="2"><rect x="0" y="0" width="76.08333206176758" height="14" rx="7" ry="7"/><text xml:space="preserve" x="7" y="10" stroke="none" font-family="sans-serif" font-size="10" font-weight="normal" fill="#000000">Contribution</text></g></g></g><g transform="translate(0 20)"><g transform="translate(-47.11666750907898 0)" fill="white"><rect x="0" y="0" width="47.11666750907898" height="12" rx="0" ry="0" stroke="none"/><g font-family="sans-serif" font-size="10" font-weight="normal" fill="#000000" text-anchor="end"><text xml:space="preserve" x="15.683333158493042" y="9" stroke="none">id:</text><text xml:space="preserve" x="18.866666555404663" y="9" stroke="none" text-anchor="start">2df...</text></g></g></g></g></g></g></g></svg>