<svg xmlns="http://www.w3.org/2000/svg" width="832" height="258" viewBox="0 0 832 258"><defs><style type="text/css"/></defs><g transform="translate(265.4287841713179 20.542360167927768) scale(1)"><g class="relationship"><g transform="translate(292.53886061933605 194.9685875204986) rotate(-56.23993439532263)" stroke-width="2" stroke="#000000"><path d="M 12 0 L 89.00000858306868 0"/></g></g><g class="relationship"><g transform="translate(-83.47928165299541 194.9685875204986) rotate(-59.99999999999999)" stroke-width="2" stroke="#000000"><path d="M 12 0 L 84.95856330599082 0"/></g></g><g class="relationship"><g transform="translate(-35 111.00000858306885) rotate(-90)" stroke-width="2" stroke="#000000"><path d="M 12 0 L 72.54236875099662 0"/></g></g><g class="relationship"><g transform="translate(348.666211216069 111.00000858306885) rotate(-90)" stroke-width="2" stroke="#000000"><path d="M 12 0 L 72.54236875099662 0"/></g></g><g class="relationship"><g transform="translate(404.7935618128019 194.9685875204986) rotate(-123.76006560467738)" stroke-width="2" stroke="#000000"><path d="M 12 0 L 89.00000858306868 0"/></g></g><g class="relationship"><g transform="translate(13.479281652995411 194.9685875204986) rotate(-120.00000000000001)" stroke-width="2" stroke="#000000"><path d="M 12 0 L 84.95856330599082 0"/></g></g><g class="node"><g fill="#a4dd00" stroke="#000000" stroke-width="2"><circle cx="13.479281652995411" cy="194.9685875204986" r="11"/></g><g transform="translate(13.479281652995411 194.9685875204986)"><g transform="translate(9.899494936611665 9.899494936611664)"><g transform="translate(0 0)"><g transform="translate(0 0)"><g fill="#ffffff" stroke="#000000" stroke-width="2"><rect x="0" y="0" width="47.650001525878906" height="14" rx="7" ry="7"/><text xml:space="preserve" x="7" y="10" stroke="none" font-family="sans-serif" font-size="10" font-weight="normal" fill="#000000">Author</text></g></g></g><g transform="translate(0 20)"><g transform="translate(0 0)" fill="white"><rect x="0" y="0" width="128.49999690055847" height="12" rx="0" ry="0" stroke="none"/><g font-family="sans-serif" font-size="10" font-weight="normal" fill="#000000" text-anchor="end"><text xml:space="preserve" x="34.90000033378601" y="9" stroke="none">name:</text><text xml:space="preserve" x="38.08333373069763" y="9" stroke="none" text-anchor="start">Leemon McHenry</text></g></g></g></g></g></g><g class="node"><g fill="#fe9200" stroke="#000000" stroke-width="2"><circle cx="-35" cy="26.457639832072232" r="11"/></g><g transform="translate(-35 26.457639832072232)"><g transform="translate(8.572527594031472e-16 -46)"><g transform="translate(0 0)"><g transform="translate(-24.04166603088379 0)"><g fill="#ffffff" stroke="#000000" stroke-width="2"><rect x="0" y="0" width="46.08333206176758" height="14" rx="7" ry="7"/><text xml:space="preserve" x="7" y="10" stroke="none" font-family="sans-serif" font-size="10" font-weight="normal" fill="#000000">Article</text></g></g></g><g transform="translate(0 20)"><g transform="translate(-53.13333451747894 0)" fill="white"><rect x="0" y="0" width="106.26666903495789" height="12" rx="0" ry="0" stroke="none"/><g font-family="sans-serif" font-size="10" font-weight="normal" fill="#000000" text-anchor="end"><text xml:space="preserve" x="26.09999918937683" y="9" stroke="none">title:</text><text xml:space="preserve" x="29.283332586288452" y="9" stroke="none" text-anchor="start">Blood money...</text></g></g></g></g></g></g><g class="node"><g fill="#aea1ff" stroke="#000000" stroke-width="2"><circle cx="-83.47928165299541" cy="194.9685875204986" r="11"/></g><g transform="translate(-83.47928165299541 194.9685875204986)"><g transform="translate(-9.899494936611664 9.899494936611665)"><g transform="translate(0 0)"><g transform="translate(-63.349998474121094 0)"><g fill="#ffffff" stroke="#000000" stroke-width="2"><rect x="0" y="0" width="61.349998474121094" height="14" rx="7" ry="7"/><text xml:space="preserve" x="7" y="10" stroke="none" font-family="sans-serif" font-size="10" font-weight="normal" fill="#000000">Affiliation</text></g></g></g><g transform="translate(0 20)"><g transform="translate(-172.05000758171082 0)" fill="white"><rect x="0" y="0" width="172.05000758171082" height="12" rx="0" ry="0" stroke="none"/><g font-family="sans-serif" font-size="10" font-weight="normal" fill="#000000" text-anchor="end"><text xml:space="preserve" x="34.90000033378601" y="9" stroke="none">name:</text><text xml:space="preserve" x="38.08333373069763" y="9" stroke="none" text-anchor="start">California State University</text></g></g></g></g></g></g><g class="node"><g fill="#fe9200" stroke="#000000" stroke-width="2"><circle cx="348.666211216069" cy="26.457639832072232" r="11"/></g><g transform="translate(348.666211216069 26.457639832072232)"><g transform="translate(8.572527594031472e-16 -46)"><g transform="translate(0 0)"><g transform="translate(-24.04166603088379 0)"><g fill="#ffffff" stroke="#000000" stroke-width="2"><rect x="0" y="0" width="46.08333206176758" height="14" rx="7" ry="7"/><text xml:space="preserve" x="7" y="10" stroke="none" font-family="sans-serif" font-size="10" font-weight="normal" fill="#000000">Article</text></g></g></g><g transform="translate(0 20)"><g transform="translate(-88.94166886806488 0)" fill="white"><rect x="0" y="0" width="177.88333773612976" height="12" rx="0" ry="0" stroke="none"/><g font-family="sans-serif" font-size="10" font-weight="normal" fill="#000000" text-anchor="end"><text xml:space="preserve" x="26.09999918937683" y="9" stroke="none">title:</text><text xml:space="preserve" x="29.283332586288452" y="9" stroke="none" text-anchor="start">Conflicted medical journals...</text></g></g></g></g></g></g><g class="node"><g fill="#aea1ff" stroke="#000000" stroke-width="2"><circle cx="404.7935618128019" cy="194.9685875204986" r="11"/></g><g transform="translate(404.7935618128019 194.9685875204986)"><g transform="translate(9.899494936611665 9.899494936611664)"><g transform="translate(0 0)"><g transform="translate(0 0)"><g fill="#ffffff" stroke="#000000" stroke-width="2"><rect x="0" y="0" width="61.349998474121094" height="14" rx="7" ry="7"/><text xml:space="preserve" x="7" y="10" stroke="none" font-family="sans-serif" font-size="10" font-weight="normal" fill="#000000">Affiliation</text></g></g></g><g transform="translate(0 20)"><g transform="translate(0 0)" fill="white"><rect x="0" y="0" width="151.08333277702332" height="12" rx="0" ry="0" stroke="none"/><g font-family="sans-serif" font-size="10" font-weight="normal" fill="#000000" text-anchor="end"><text xml:space="preserve" x="34.90000033378601" y="9" stroke="none">name:</text><text xml:space="preserve" x="38.08333373069763" y="9" stroke="none" text-anchor="start">University of Adelaide</text></g></g></g></g></g></g><g class="node"><g fill="#a4dd00" stroke="#000000" stroke-width="2"><circle cx="292.53886061933605" cy="194.9685875204986" r="11"/></g><g transform="translate(292.53886061933605 194.9685875204986)"><g transform="translate(-9.899494936611664 9.899494936611665)"><g transform="translate(0 0)"><g transform="translate(-49.650001525878906 0)"><g fill="#ffffff" stroke="#000000" stroke-width="2"><rect x="0" y="0" width="47.650001525878906" height="14" rx="7" ry="7"/><text xml:space="preserve" x="7" y="10" stroke="none" font-family="sans-serif" font-size="10" font-weight="normal" fill="#000000">Author</text></g></g></g><g transform="translate(0 20)"><g transform="translate(-128.49999690055847 0)" fill="white"><rect x="0" y="0" width="128.49999690055847" height="12" rx="0" ry="0" stroke="none"/><g font-family="sans-serif" font-size="10" font-weight="normal" fill="#000000" text-anchor="end"><text xml:space="preserve" x="34.90000033378601" y="9" stroke="none">name:</text><text xml:space="preserve" x="38.08333373069763" y="9" stroke="none" text-anchor="start">Leemon McHenry</text></g></g></g></g></g></g><g class="node"><g fill="#ffffff" stroke="#000000" stroke-width="2"><circle cx="-35" cy="111.00000858306885" r="11"/></g></g><g class="node"><g fill="#ffffff" stroke="#000000" stroke-width="2"><circle cx="348.666211216069" cy="111.00000858306885" r="11"/></g></g></g></svg>