<svg xmlns="http://www.w3.org/2000/svg" width="657" height="273" viewBox="0 0 657 273"><defs><style type="text/css"/></defs><g transform="translate(127.64949183717013 37) scale(1)"><g class="relationship"><g transform="translate(115.2642934811109 189.5021393515242) rotate(-59.88690850442647)" stroke-width="2" stroke="#000000"><path d="M 12 0 L 95.3760299747326 0"/></g></g><g class="relationship"><g transform="translate(169.13574992037854 96.61792113202921) rotate(-120.24312010728299)" stroke-width="2" stroke="#000000"><path d="M 12 0 L 88.26429348111091 0"/></g></g><g class="relationship"><g transform="translate(301.4291199208081 96.61792113202921) rotate(-90)" stroke-width="2" stroke="#000000"><path d="M 12 0 L 74.61792113202921 0"/></g></g><g class="relationship"><g transform="translate(367.75980227357553 180.8000041845703) rotate(-128.2360947909362)" stroke-width="2" stroke="#000000"><path d="M 12 0 L 95.17454235241063 0"/></g></g><g class="relationship"><g transform="translate(235.09843756803986 180.8000041845703) rotate(-128.08124043559567)" stroke-width="2" stroke="#000000"><path d="M 12 0 L 94.94717980745381 0"/></g></g><g class="relationship"><g transform="translate(301.4291199208081 96.61792113202921) rotate(128.23609479093653)" stroke-width="2" stroke="#000000"><path d="M 12 0 L 95.17454235241112 0"/></g></g><g class="relationship"><g transform="translate(68.50346173416071 96.83142524714054) rotate(-60.00000000000001)" stroke-width="2" stroke="#000000"><path d="M 12 0 L 88.26429348111091 0"/></g></g><g class="relationship"><g transform="translate(68.50346173416071 96.83142524714054) rotate(63.22488800680283)" stroke-width="2" stroke="#000000"><path d="M 12 0 L 91.7999838067569 0"/></g></g><g class="relationship"><g transform="translate(15 189.5021393515242) rotate(-60.00000000000002)" stroke-width="2" stroke="#000000"><path d="M 12 0 L 95.00692346832147 0"/></g></g><g class="node"><g fill="#a4dd00" stroke="#000000" stroke-width="2"><circle cx="235.09843756803986" cy="180.8000041845703" r="11"/></g><g transform="translate(235.09843756803986 180.8000041845703)"><g transform="translate(8.572527594031472e-16 14)"><g transform="translate(0 0)"><g transform="translate(-24.825000762939453 0)"><g fill="#ffffff" stroke="#000000" stroke-width="2"><rect x="0" y="0" width="47.650001525878906" height="14" rx="7" ry="7"/><text xml:space="preserve" x="7" y="10" stroke="none" font-family="sans-serif" font-size="10" font-weight="normal" fill="#000000">Author</text></g></g></g><g transform="translate(0 20)"><g transform="translate(-64.24999845027924 0)" fill="white"><rect x="0" y="0" width="128.49999690055847" height="12" rx="0" ry="0" stroke="none"/><g font-family="sans-serif" font-size="10" font-weight="normal" fill="#000000" text-anchor="end"><text xml:space="preserve" x="34.90000033378601" y="9" stroke="none">name:</text><text xml:space="preserve" x="38.08333373069763" y="9" stroke="none" text-anchor="start">Leemon McHenry</text></g></g></g></g></g></g><g class="node"><g fill="#fe9200" stroke="#000000" stroke-width="2"><circle cx="118.63560847471616" cy="10" r="11"/></g><g transform="translate(118.63560847471616 10)"><g transform="translate(8.572527594031472e-16 -46)"><g transform="translate(0 0)"><g transform="translate(-24.04166603088379 0)"><g fill="#ffffff" stroke="#000000" stroke-width="2"><rect x="0" y="0" width="46.08333206176758" height="14" rx="7" ry="7"/><text xml:space="preserve" x="7" y="10" stroke="none" font-family="sans-serif" font-size="10" font-weight="normal" fill="#000000">Article</text></g></g></g><g transform="translate(0 20)"><g transform="translate(-53.13333451747894 0)" fill="white"><rect x="0" y="0" width="106.26666903495789" height="12" rx="0" ry="0" stroke="none"/><g font-family="sans-serif" font-size="10" font-weight="normal" fill="#000000" text-anchor="end"><text xml:space="preserve" x="26.09999918937683" y="9" stroke="none">title:</text><text xml:space="preserve" x="29.283332586288452" y="9" stroke="none" text-anchor="start">Blood money...</text></g></g></g></g></g></g><g class="node"><g fill="#aea1ff" stroke="#000000" stroke-width="2"><circle cx="115.2642934811109" cy="189.5021393515242" r="11"/></g><g transform="translate(115.2642934811109 189.5021393515242)"><g transform="translate(8.572527594031472e-16 14)"><g transform="translate(0 0)"><g transform="translate(-31.674999237060547 0)"><g fill="#ffffff" stroke="#000000" stroke-width="2"><rect x="0" y="0" width="61.349998474121094" height="14" rx="7" ry="7"/><text xml:space="preserve" x="7" y="10" stroke="none" font-family="sans-serif" font-size="10" font-weight="normal" fill="#000000">Affiliation</text></g></g></g><g transform="translate(0 20)"><g transform="translate(-86.02500379085541 0)" fill="white"><rect x="0" y="0" width="172.05000758171082" height="12" rx="0" ry="0" stroke="none"/><g font-family="sans-serif" font-size="10" font-weight="normal" fill="#000000" text-anchor="end"><text xml:space="preserve" x="34.90000033378601" y="9" stroke="none">name:</text><text xml:space="preserve" x="38.08333373069763" y="9" stroke="none" text-anchor="start">California State University</text></g></g></g></g></g></g><g class="node"><g fill="#fe9200" stroke="#000000" stroke-width="2"><circle cx="301.4291199208081" cy="10" r="11"/></g><g transform="translate(301.4291199208081 10)"><g transform="translate(8.572527594031472e-16 -46)"><g transform="translate(0 0)"><g transform="translate(-24.04166603088379 0)"><g fill="#ffffff" stroke="#000000" stroke-width="2"><rect x="0" y="0" width="46.08333206176758" height="14" rx="7" ry="7"/><text xml:space="preserve" x="7" y="10" stroke="none" font-family="sans-serif" font-size="10" font-weight="normal" fill="#000000">Article</text></g></g></g><g transform="translate(0 20)"><g transform="translate(-88.94166886806488 0)" fill="white"><rect x="0" y="0" width="177.88333773612976" height="12" rx="0" ry="0" stroke="none"/><g font-family="sans-serif" font-size="10" font-weight="normal" fill="#000000" text-anchor="end"><text xml:space="preserve" x="26.09999918937683" y="9" stroke="none">title:</text><text xml:space="preserve" x="29.283332586288452" y="9" stroke="none" text-anchor="start">Conflicted medical journals...</text></g></g></g></g></g></g><g class="node"><g fill="#aea1ff" stroke="#000000" stroke-width="2"><circle cx="367.75980227357553" cy="180.8000041845703" r="11"/></g><g transform="translate(367.75980227357553 180.8000041845703)"><g transform="translate(9.899494936611665 9.899494936611664)"><g transform="translate(0 0)"><g transform="translate(0 0)"><g fill="#ffffff" stroke="#000000" stroke-width="2"><rect x="0" y="0" width="61.349998474121094" height="14" rx="7" ry="7"/><text xml:space="preserve" x="7" y="10" stroke="none" font-family="sans-serif" font-size="10" font-weight="normal" fill="#000000">Affiliation</text></g></g></g><g transform="translate(0 20)"><g transform="translate(0 0)" fill="white"><rect x="0" y="0" width="151.08333277702332" height="12" rx="0" ry="0" stroke="none"/><g font-family="sans-serif" font-size="10" font-weight="normal" fill="#000000" text-anchor="end"><text xml:space="preserve" x="34.90000033378601" y="9" stroke="none">name:</text><text xml:space="preserve" x="38.08333373069763" y="9" stroke="none" text-anchor="start">University of Adelaide</text></g></g></g></g></g></g><g class="node"><g fill="#ffffff" stroke="#000000" stroke-width="2"><circle cx="169.13574992037854" cy="96.61792113202921" r="11"/></g><g transform="translate(169.13574992037854 96.61792113202921)"><g transform="translate(9.899494936611665 -41.89949493661166)"><g transform="translate(0 0)"><g transform="translate(0 0)"><g fill="#ffffff" stroke="#000000" stroke-width="2"><rect x="0" y="0" width="76.08333206176758" height="14" rx="7" ry="7"/><text xml:space="preserve" x="7" y="10" stroke="none" font-family="sans-serif" font-size="10" font-weight="normal" fill="#000000">Contribution</text></g></g></g><g transform="translate(0 20)"><g transform="translate(0 0)" fill="white"><rect x="0" y="0" width="75.44999957084656" height="12" rx="0" ry="0" stroke="none"/><g font-family="sans-serif" font-size="10" font-weight="normal" fill="#000000" text-anchor="end"><text xml:space="preserve" x="43.61666560173035" y="9" stroke="none">rand_id:</text><text xml:space="preserve" x="46.79999899864197" y="9" stroke="none" text-anchor="start">8932</text></g></g></g></g></g></g><g class="node"><g fill="#ffffff" stroke="#000000" stroke-width="2"><circle cx="301.4291199208081" cy="96.61792113202921" r="11"/></g><g transform="translate(301.4291199208081 96.61792113202921)"><g transform="translate(14 -16)"><g transform="translate(0 0)"><g transform="translate(0 0)"><g fill="#ffffff" stroke="#000000" stroke-width="2"><rect x="0" y="0" width="76.08333206176758" height="14" rx="7" ry="7"/><text xml:space="preserve" x="7" y="10" stroke="none" font-family="sans-serif" font-size="10" font-weight="normal" fill="#000000">Contribution</text></g></g></g><g transform="translate(0 20)"><g transform="translate(0 0)" fill="white"><rect x="0" y="0" width="75.44999957084656" height="12" rx="0" ry="0" stroke="none"/><g font-family="sans-serif" font-size="10" font-weight="normal" fill="#000000" text-anchor="end"><text xml:space="preserve" x="43.61666560173035" y="9" stroke="none">rand_id:</text><text xml:space="preserve" x="46.79999899864197" y="9" stroke="none" text-anchor="start">5286</text></g></g></g></g></g></g><g class="node"><g fill="#a4dd00" stroke="#000000" stroke-width="2"><circle cx="15" cy="189.5021393515242" r="11"/></g><g transform="translate(15 189.5021393515242)"><g transform="translate(-9.899494936611664 9.899494936611665)"><g transform="translate(0 0)"><g transform="translate(-49.650001525878906 0)"><g fill="#ffffff" stroke="#000000" stroke-width="2"><rect x="0" y="0" width="47.650001525878906" height="14" rx="7" ry="7"/><text xml:space="preserve" x="7" y="10" stroke="none" font-family="sans-serif" font-size="10" font-weight="normal" fill="#000000">Author</text></g></g></g><g transform="translate(0 20)"><g transform="translate(-132.74999690055847 0)" fill="white"><rect x="0" y="0" width="132.74999690055847" height="12" rx="0" ry="0" stroke="none"/><g font-family="sans-serif" font-size="10" font-weight="normal" fill="#000000" text-anchor="end"><text xml:space="preserve" x="34.90000033378601" y="9" stroke="none">name:</text><text xml:space="preserve" x="38.08333373069763" y="9" stroke="none" text-anchor="start">Mellad Khoshnood</text></g></g></g></g></g></g><g class="node"><g fill="#ffffff" stroke="#000000" stroke-width="2"><circle cx="68.50346173416071" cy="96.83142524714054" r="11"/></g><g transform="translate(68.50346173416071 96.83142524714054)"><g transform="translate(-9.899494936611664 -41.89949493661167)"><g transform="translate(0 0)"><g transform="translate(-78.08333206176758 0)"><g fill="#ffffff" stroke="#000000" stroke-width="2"><rect x="0" y="0" width="76.08333206176758" height="14" rx="7" ry="7"/><text xml:space="preserve" x="7" y="10" stroke="none" font-family="sans-serif" font-size="10" font-weight="normal" fill="#000000">Contribution</text></g></g></g><g transform="translate(0 20)"><g transform="translate(-75.44999957084656 0)" fill="white"><rect x="0" y="0" width="75.44999957084656" height="12" rx="0" ry="0" stroke="none"/><g font-family="sans-serif" font-size="10" font-weight="normal" fill="#000000" text-anchor="end"><text xml:space="preserve" x="43.61666560173035" y="9" stroke="none">rand_id:</text><text xml:space="preserve" x="46.79999899864197" y="9" stroke="none" text-anchor="start">2754</text></g></g></g></g></g></g></g></svg>