<svg xmlns="http://www.w3.org/2000/svg" width="491" height="294" viewBox="0 0 491 294"><defs><style type="text/css"/></defs><g transform="translate(71.94950251832248 32.89949493661167) scale(1)"><g class="relationship"><g transform="translate(110 10) rotate(59.999999999999986)" stroke-width="2" stroke="#000000"><path d="M 12 0 L 108.66620626063178 0"/></g></g><g class="relationship"><g transform="translate(170.33310313031592 114.49999999999999) rotate(120.00000000000001)" stroke-width="2" stroke="#000000"><path d="M 12 0 L 108.66620626063181 0"/></g></g><g class="relationship"><g transform="translate(230.66621121606894 10.000002861022907) rotate(120.0000027169917)" stroke-width="2" stroke="#000000"><path d="M 12 0 L 108.66620626063197 0"/></g></g><g class="relationship"><g transform="translate(230.66621121606894 219.00000858306885) rotate(-120.00000000000001)" stroke-width="2" stroke="#000000"><path d="M 12 0 L 108.66621617150602 0"/></g></g><g class="node"><g fill="#a4dd00" stroke="#000000" stroke-width="2"><circle cx="170.33310313031592" cy="114.49999999999999" r="11"/></g><g transform="translate(170.33310313031592 114.49999999999999)"><g transform="translate(-14 -15.999999999999998)"><g transform="translate(0 0)"><g transform="translate(-49.650001525878906 0)"><g fill="#ffffff" stroke="#000000" stroke-width="2"><rect x="0" y="0" width="47.650001525878906" height="14" rx="7" ry="7"/><text xml:space="preserve" x="7" y="10" stroke="none" font-family="sans-serif" font-size="10" font-weight="normal" fill="#000000">Author</text></g></g></g><g transform="translate(0 20)"><g transform="translate(-128.49999690055847 0)" fill="white"><rect x="0" y="0" width="128.49999690055847" height="12" rx="0" ry="0" stroke="none"/><g font-family="sans-serif" font-size="10" font-weight="normal" fill="#000000" text-anchor="end"><text xml:space="preserve" x="34.90000033378601" y="9" stroke="none">name:</text><text xml:space="preserve" x="38.08333373069763" y="9" stroke="none" text-anchor="start">Leemon McHenry</text></g></g></g></g></g></g><g class="node"><g fill="#fe9200" stroke="#000000" stroke-width="2"><circle cx="110" cy="10" r="11"/></g><g transform="translate(110 10)"><g transform="translate(-9.899494936611664 -41.89949493661167)"><g transform="translate(0 0)"><g transform="translate(-48.08333206176758 0)"><g fill="#ffffff" stroke="#000000" stroke-width="2"><rect x="0" y="0" width="46.08333206176758" height="14" rx="7" ry="7"/><text xml:space="preserve" x="7" y="10" stroke="none" font-family="sans-serif" font-size="10" font-weight="normal" fill="#000000">Article</text></g></g></g><g transform="translate(0 20)"><g transform="translate(-106.26666903495789 0)" fill="white"><rect x="0" y="0" width="106.26666903495789" height="12" rx="0" ry="0" stroke="none"/><g font-family="sans-serif" font-size="10" font-weight="normal" fill="#000000" text-anchor="end"><text xml:space="preserve" x="26.09999918937683" y="9" stroke="none">title:</text><text xml:space="preserve" x="29.283332586288452" y="9" stroke="none" text-anchor="start">Blood money...</text></g></g></g></g></g></g><g class="node"><g fill="#aea1ff" stroke="#000000" stroke-width="2"><circle cx="110" cy="219" r="11"/></g><g transform="translate(110 219)"><g transform="translate(-9.899494936611664 9.899494936611665)"><g transform="translate(0 0)"><g transform="translate(-63.349998474121094 0)"><g fill="#ffffff" stroke="#000000" stroke-width="2"><rect x="0" y="0" width="61.349998474121094" height="14" rx="7" ry="7"/><text xml:space="preserve" x="7" y="10" stroke="none" font-family="sans-serif" font-size="10" font-weight="normal" fill="#000000">Affiliation</text></g></g></g><g transform="translate(0 20)"><g transform="translate(-172.05000758171082 0)" fill="white"><rect x="0" y="0" width="172.05000758171082" height="12" rx="0" ry="0" stroke="none"/><g font-family="sans-serif" font-size="10" font-weight="normal" fill="#000000" text-anchor="end"><text xml:space="preserve" x="34.90000033378601" y="9" stroke="none">name:</text><text xml:space="preserve" x="38.08333373069763" y="9" stroke="none" text-anchor="start">California State University</text></g></g></g></g></g></g><g class="node"><g fill="#fe9200" stroke="#000000" stroke-width="2"><circle cx="230.66621121606894" cy="10.000002861022907" r="11"/></g><g transform="translate(230.66621121606894 10.000002861022907)"><g transform="translate(9.899494936611665 -41.89949493661166)"><g transform="translate(0 0)"><g transform="translate(0 0)"><g fill="#ffffff" stroke="#000000" stroke-width="2"><rect x="0" y="0" width="46.08333206176758" height="14" rx="7" ry="7"/><text xml:space="preserve" x="7" y="10" stroke="none" font-family="sans-serif" font-size="10" font-weight="normal" fill="#000000">Article</text></g></g></g><g transform="translate(0 20)"><g transform="translate(0 0)" fill="white"><rect x="0" y="0" width="177.88333773612976" height="12" rx="0" ry="0" stroke="none"/><g font-family="sans-serif" font-size="10" font-weight="normal" fill="#000000" text-anchor="end"><text xml:space="preserve" x="26.09999918937683" y="9" stroke="none">title:</text><text xml:space="preserve" x="29.283332586288452" y="9" stroke="none" text-anchor="start">Conflicted medical journals...</text></g></g></g></g></g></g><g class="node"><g fill="#aea1ff" stroke="#000000" stroke-width="2"><circle cx="230.66621121606894" cy="219.00000858306885" r="11"/></g><g transform="translate(230.66621121606894 219.00000858306885)"><g transform="translate(9.899494936611665 9.899494936611664)"><g transform="translate(0 0)"><g transform="translate(0 0)"><g fill="#ffffff" stroke="#000000" stroke-width="2"><rect x="0" y="0" width="61.349998474121094" height="14" rx="7" ry="7"/><text xml:space="preserve" x="7" y="10" stroke="none" font-family="sans-serif" font-size="10" font-weight="normal" fill="#000000">Affiliation</text></g></g></g><g transform="translate(0 20)"><g transform="translate(0 0)" fill="white"><rect x="0" y="0" width="151.08333277702332" height="12" rx="0" ry="0" stroke="none"/><g font-family="sans-serif" font-size="10" font-weight="normal" fill="#000000" text-anchor="end"><text xml:space="preserve" x="34.90000033378601" y="9" stroke="none">name:</text><text xml:space="preserve" x="38.08333373069763" y="9" stroke="none" text-anchor="start">University of Adelaide</text></g></g></g></g></g></g></g></svg>